<svg width="1690" height="1342" viewBox="0 0 1690 1342" fill="none" xmlns="http://www.w3.org/2000/svg">
<g filter="url(#filter0_d_12_472)">
<path fill-rule="evenodd" clip-rule="evenodd" d="M1433.91 1192.16C1770.19 1189.05 1834.7 1365.36 1216.65 1327.82C1109.41 1321.31 939.291 1269.35 798.93 1259.23C647.331 1248.31 352.142 1264.11 307.053 1262.28C129.121 1255.05 22.4869 1188.07 534.794 1192.16C722.892 1193.66 1265.04 1193.71 1433.91 1192.16Z" fill="#F6F6F6"/>
<path d="M1396.5 1306.95C1454.69 1306.95 1501.86 1300.1 1501.86 1291.64C1501.86 1283.19 1454.69 1276.34 1396.5 1276.34C1338.31 1276.34 1291.14 1283.19 1291.14 1291.64C1291.14 1300.1 1338.31 1306.95 1396.5 1306.95Z" fill="black" fill-opacity="0.2"/>
<path d="M839.316 1223.23C884.21 1223.23 920.605 1218.09 920.605 1211.73C920.605 1205.38 884.21 1200.23 839.316 1200.23C794.421 1200.23 758.027 1205.38 758.027 1211.73C758.027 1218.09 794.421 1223.23 839.316 1223.23Z" fill="black" fill-opacity="0.2"/>
<path fill-rule="evenodd" clip-rule="evenodd" d="M1609.15 525.476C1712.44 836.42 1466.02 1289.92 1204.93 1056.28C1068.25 933.98 820.973 779.088 645.22 881.712C-50.1061 1287.75 -97.415 591.316 116.614 630.77C695.882 737.55 655.422 466.736 793.382 258.209C977.37 -19.8851 1468.85 103.102 1609.15 525.476Z" fill="#F6F6F6"/>
<path d="M334.764 1247.85C378.481 1247.85 413.92 1242.34 413.92 1235.54C413.92 1228.74 378.481 1223.23 334.764 1223.23C291.048 1223.23 255.609 1228.74 255.609 1235.54C255.609 1242.34 291.048 1247.85 334.764 1247.85Z" fill="black" fill-opacity="0.2"/>
<path d="M415.993 1204.76C413.082 1201.34 410.419 1197.73 408.022 1193.94C400.154 1182.01 395.387 1169.63 391.726 1154.33C384.332 1126.61 383.042 1097.61 387.944 1069.34C388.337 1071.73 388.432 1074.03 388.726 1076.55C388.817 1080.07 390.61 1082.31 392.304 1084.68C393.602 1086.61 393.991 1089.49 395.585 1091.75C398.281 1094.99 403.074 1094.47 405.685 1090.78C407.573 1091.5 409.633 1091.63 411.597 1091.15C413.56 1090.68 415.335 1089.63 416.69 1088.13C419.197 1085.3 420.607 1081.5 421.716 1077.61C421.916 1076.61 422.122 1075.62 422.223 1074.76C424.32 1076.35 426.916 1077.29 429.321 1075.08C433.729 1071.44 434.548 1064.3 433.662 1058.68C433.325 1056.41 432.727 1054.19 431.879 1052.06L432.079 1052.04C436.482 1050.34 435.6 1043.26 433.809 1039.8C432.5 1036.75 430.756 1033.91 428.632 1031.36C429.037 1030.56 429.146 1029.64 428.938 1028.77C428.452 1023.35 424.162 1019.8 420.266 1018.4C415.473 1016.48 408.973 1016.82 405.78 1014.24C404.479 1012.98 403.52 1011.41 402.992 1009.68C402.793 1009.46 402.793 1009.21 402.693 1008.86C403.123 1007.83 403.493 1006.77 403.8 1005.7C410.443 988.676 417.08 973.603 426.514 959.444C426.763 961.122 426.893 962.816 426.901 964.512C426.79 969.025 426.176 974.198 429.168 977.285C432.657 981.409 438.754 981.115 441.471 975.103C443.079 971.766 443.19 967.739 444.998 964.381C445.519 963.375 446.124 962.415 446.804 961.509C447.896 964.92 446.782 970.272 445.673 974.163C442.846 984.688 434.73 991.769 431.502 1002.58C430.591 1007.18 433.386 1009.07 436.186 1008.52C435.677 1012.11 435.069 1015.58 435.56 1019.05C437.237 1028 443.925 1032.26 451.13 1029.78C451.322 1032.92 451.513 1036.06 452.607 1038.75C454.79 1044.84 460.578 1049.32 466.386 1046.99C468.634 1045.92 470.567 1044.28 471.998 1042.25C475.279 1049.56 476.249 1060.89 484.645 1061.93C487.241 1062.62 490.044 1061.59 492.15 1059.29C493.609 1060.04 495.15 1060.61 496.743 1060.99C499.839 1061.26 502.845 1059.72 505.451 1057.49C514.169 1049.62 513.505 1035.7 510.231 1025.71C510.231 1025.47 510.131 1025.36 510.131 1025.11C510.431 1024.96 510.73 1025.05 511.03 1024.89C521.842 1019.59 514.379 1005.43 508.593 1000.46L507.894 999.681C514.308 993.878 509.232 985.058 502.844 980.396C501.646 979.553 500.648 978.443 499.449 977.601C500.995 976.146 502.048 974.246 502.463 972.165C503.575 967.056 500.086 963.178 496.791 961.464C494.729 960.539 492.591 959.793 490.401 959.234C490.868 958.434 491.089 957.516 491.038 956.591C490.987 955.667 490.666 954.778 490.114 954.034C487.723 950.886 483.624 950.234 480.03 950.623C478.731 950.886 477.533 951.258 476.128 951.653C474.93 949.835 471.036 949.892 468.933 950.241C463.333 950.846 459.028 952.893 454.635 950.935C450.74 949.043 448.951 944.858 447.063 940.317C446.374 938.43 445.811 936.499 445.378 934.537C454.505 923.209 463.93 912.701 473.755 902.394C474.581 905.736 474.942 909.177 474.828 912.618C474.709 919.807 472.475 933.677 481.175 932.859C482.559 932.526 483.834 931.843 484.879 930.877C485.97 934.771 487.359 938.76 489.851 941.532C493.937 946.809 503.93 947.922 506.654 939.229C507.304 936.657 507.404 933.976 506.945 931.363C506.487 928.75 505.481 926.263 503.994 924.066C501.703 920.542 496.215 916.147 498.521 913.582C498.92 913.053 499.919 913.187 501.621 913.369C502.472 913.591 503.341 913.741 504.217 913.818C505.64 919.207 507.996 924.305 511.178 928.882C517.354 937.46 524.635 944.581 531.614 952.1C535.702 956.403 541.483 963.321 547.596 957.916C548.742 956.769 549.484 955.28 549.707 953.673C553.102 955.983 556.596 958.403 560.69 958.326C566.588 958.539 568.808 950.757 568.424 944.715C568.373 944.392 568.373 944.064 568.424 943.741C572.318 945.633 576.512 946.395 579.828 941.536C585.553 931.306 582.899 913.222 574.415 907.934C573.816 907.512 573.117 907.223 572.518 906.801C573.088 906.007 573.466 905.091 573.624 904.126C574.737 898.775 571.45 894.141 567.857 892.097C565.56 891.007 563.064 891.155 560.561 891.061C560.442 890.176 560.018 889.361 559.362 888.756C556.766 886.36 553.371 885.997 550.176 885.37C554.876 884.74 558.881 882.848 561.489 879.159C562.358 877.753 562.971 876.203 563.3 874.583C568 874.197 572.902 873.302 576.91 869.949C581.117 867.062 583.632 860.828 581.644 856.177C584.161 855.378 586.457 854.005 588.353 852.167C595.772 844.552 594.297 834.613 586.312 829.393C584.774 828.358 583.092 827.556 581.319 827.013C588.13 822.384 595.843 817.049 597.368 806.786C598.481 801.922 597.094 796.961 594.001 794.254C586.912 789.062 577.713 791.026 569.406 793.992C570.425 792.008 571.01 789.83 571.123 787.602C571.54 780.501 564.854 775.748 559.452 776.818C556.289 777.337 553.3 778.621 550.744 780.557L550.644 780.689C550.664 772.901 544.863 773.772 538.951 778.912C533.241 783.3 528.725 789.75 525.109 796.71C523.416 793.608 520.216 794.198 517.508 797.288L517.009 797.951C518.52 793.529 518.431 789.281 513.636 787.367C513.034 787.119 512.39 786.983 511.739 786.968C514.152 781.597 516.367 775.762 515.182 770.05C513.796 764.359 507.793 764.522 503.99 767.609C503.948 767.684 503.891 767.748 503.822 767.798C503.753 767.848 503.674 767.881 503.59 767.897C503.899 764.578 504.608 761.217 503.515 758.293C501.132 751.738 493.838 749.971 488.826 754.892C488.27 755.424 487.767 756.008 487.323 756.636C479.434 753.961 472.903 765.252 471.181 774.075C469.284 771.969 467.087 770.746 464.386 772.378C458.478 776.057 456.357 784.681 455.838 791.915C455.684 793.616 455.68 795.326 455.825 797.027C454.787 797.35 453.848 797.931 453.095 798.714C452.341 799.497 451.797 800.458 451.514 801.507C448.483 814.245 456.651 826.014 460.527 835.206C461.606 837.843 462.501 840.552 463.206 843.312C460.931 841.599 458.166 840.661 455.318 840.636C453.859 840.657 452.453 841.182 451.338 842.124C450.224 843.065 449.47 844.364 449.206 845.799C449.045 847.574 449.424 849.356 450.292 850.913C451.134 853.125 452.272 855.211 453.676 857.116C455.473 859.356 457.164 861.728 459.158 863.945C458.446 864.136 457.793 864.5 457.255 865.003C454.146 868.624 457.333 873.875 459.024 876.978C460.068 878.503 461.31 879.883 462.719 881.08C462.308 885.018 468.69 891.871 470.585 893.492C471.589 894.423 472.657 895.283 473.78 896.066C464.156 905.866 454.932 916.109 446.007 926.685C445.496 927.401 444.926 928.073 444.302 928.694C443.472 928.228 442.603 927.834 441.706 927.515C440.418 927.005 439.208 926.317 438.111 925.47C433.718 922.538 430.435 916.683 433.351 910.411C434.558 907.605 438.067 903.941 439.575 900.25C439.904 899.215 440.004 898.12 439.869 897.043C439.734 895.965 439.366 894.93 438.791 894.008C440.703 889.786 445.311 886.125 446.723 881.349C446.935 880.434 446.89 879.478 446.592 878.587C446.295 877.696 445.756 876.904 445.036 876.301C445.735 874.886 446.543 873.339 447.247 871.925C450.46 866.225 451.685 856.602 444.184 857.535C443.785 857.578 443.485 857.735 443.086 857.776C444.411 848.021 449.345 834.471 438.554 831.744C437.759 831.627 436.951 831.632 436.157 831.76C437.569 826.984 439.382 821.921 438.194 816.94C436.915 808.927 428.516 809.591 423.507 813.295C422.398 814.09 421.388 815.017 420.501 816.054C419.319 808.882 416.637 802.237 410.138 802.575C397.936 804.137 392.299 818.858 390.966 832.02C390.866 832.639 390.866 833.127 390.767 833.746C390.447 833.629 390.107 833.583 389.768 833.611C386.273 833.137 382.663 836.207 380.354 839.494C375.134 847.844 376.905 858.846 379.584 867.194C379.684 867.549 379.884 867.771 379.984 868.125C376.979 869.909 375.668 874.552 376.258 878.139C376.733 880.506 377.755 882.728 379.242 884.629C380.382 886.126 381.851 887.342 383.535 888.181C383.424 889.083 383.528 889.999 383.839 890.854C384.149 891.708 384.658 892.477 385.323 893.097C388.019 896.093 392.412 898.049 394.802 900.467C396.168 902.226 397.4 904.086 398.487 906.03C394.08 909.425 391.065 915.105 393.249 921.196C396.72 932.379 406.899 939.552 417.001 938.339C422.002 937.797 427.011 933.607 430.811 932.953C432.409 932.779 434.007 933.823 435.105 935.53C435.704 936.438 436.004 937.258 436.403 937.945C427.275 949.516 418.446 961.664 411.712 975.409C409.301 980.049 407.089 984.912 404.876 989.773C400.071 992.726 395.672 992.228 392.082 988.723C388.493 984.487 389.811 977.411 389.128 970.793C388.744 967.8 387.617 964.951 385.85 962.505C383.953 960.886 381.157 959.971 378.755 961.207C378.272 959.165 377.157 957.327 375.569 955.955C372.374 953.38 367.975 954.099 366.166 957.944C363.969 955.505 361.473 953.707 358.277 953.566C353.28 952.889 349.271 956.729 348.858 962.127C346.371 962.011 343.914 962.703 341.854 964.1C335.344 968.575 332.115 980.117 336.898 986.656L337.097 986.879C332.988 990.607 330.872 997.528 337.467 998.761C340.141 999.1 342.857 998.764 345.368 997.785C344.288 1000.37 343.802 1003.17 343.948 1005.97C343.947 1007.35 344.393 1008.68 345.22 1009.78C346.048 1010.88 347.21 1011.67 348.531 1012.05C350.428 1012.45 352.531 1011.86 354.432 1011.29C354.848 1011.12 355.249 1010.91 355.63 1010.67C355.61 1018.46 362.203 1020.91 369.809 1016.19C370.489 1015.74 371.127 1015.22 371.713 1014.65C373.168 1015.02 374.681 1015.08 376.161 1014.84C377.64 1014.59 379.054 1014.05 380.314 1013.23C382.217 1011.94 383.524 1009.48 384.629 1007.29C387.142 1002.03 386.861 994.886 391.358 995.495C393.391 995.507 395.386 996.046 397.149 997.058C398.447 997.527 399.645 999.1 401.043 998.462C400.238 1000.5 399.333 1002.66 398.628 1004.81C398.381 1004.93 398.174 1005.12 398.029 1005.36C396.311 1011.99 390.207 1014.23 385.595 1019.35C382.798 1022.43 380.677 1026.06 379.369 1030C379.143 1030.61 378.976 1031.24 378.87 1031.88C375.461 1035.66 371.747 1041.05 373.735 1045.46C374.171 1046.26 374.746 1046.98 375.433 1047.58C374.592 1050.82 374.347 1054.19 374.708 1057.52C374.897 1061.63 375.486 1065.95 377.279 1068.43C372.777 1069.77 369.306 1058.83 361.907 1058.9C360.954 1058.76 359.982 1058.84 359.064 1059.13C358.145 1059.41 357.304 1059.91 356.604 1060.57C349.914 1058.74 344.777 1071.82 350.058 1078.92C351.251 1080.22 352.823 1081.11 354.551 1081.47C354.404 1082.41 354.505 1083.36 354.845 1084.24C356.742 1086.84 360.037 1086.11 362.742 1084.72C364.334 1087.47 368.034 1087.68 370.636 1086.18C373.04 1084.46 374.548 1081.26 376.454 1078.74C377.153 1077.57 378.96 1076.16 379.26 1076.24L381.357 1075.65C379.721 1087.16 379.078 1098.79 379.437 1110.4C379.997 1125.92 382.758 1140.95 386.32 1155.4C389.88 1170.84 395.842 1185.28 404.209 1197.27C406.601 1200.66 409.192 1204.03 411.783 1207.15C412.01 1207.51 412.352 1207.78 412.751 1207.91C413.151 1208.04 413.585 1208.04 413.98 1207.89C417.779 1208.21 417.788 1206.26 415.993 1204.76ZM492.346 864.733C492.589 858.467 494.731 852.423 498.489 847.402C498.958 846.723 499.495 846.094 500.093 845.525C499.376 852.294 499.059 859.02 498.643 865.635C498.436 868.331 498.328 871.144 498.121 873.842C497.323 874.658 496.418 875.364 495.717 876.048C495.508 875.873 495.366 875.63 495.318 875.361C493.512 872.099 492.494 868.459 492.346 864.733ZM501.582 889.162C499.569 887.762 497.871 885.957 496.597 883.861C496.147 883.12 495.747 882.35 495.398 881.557C495.698 881.647 496.197 881.471 496.497 881.557C498.194 881.251 498.793 881.186 500.598 880.993C504.146 880.55 507.729 880.448 511.297 880.687C516.894 881.056 525.486 883.534 534.081 885.039L532.284 885.232C525.681 886.676 518.274 890.153 512.574 890.647C508.176 890.639 504.976 890.986 501.582 889.162Z" fill="#96CE1F"/>
<path d="M448.946 1126.67C443.509 1126.87 438.065 1126.69 432.654 1126.12C415.388 1124.63 400.02 1119.85 382.708 1111.82C350.763 1097.99 322.198 1077.4 298.985 1051.46C301.556 1052.89 303.817 1054.53 306.439 1056.15C309.855 1058.71 313.335 1058.69 316.867 1058.86C319.676 1059.08 322.709 1060.87 326.06 1061.06C331.166 1060.93 334.284 1055.97 332.737 1050.71C336.744 1048.48 339.192 1043.76 338.497 1038.25C337.698 1033.74 335.137 1029.54 332.269 1025.55C331.47 1024.61 330.68 1023.67 329.936 1022.92C333.032 1022.13 335.879 1020.36 335.589 1016.42C335.443 1009.48 329.26 1003.33 323.244 999.94C320.833 998.554 318.268 997.451 315.603 996.655L315.733 996.448C317.436 990.984 310.033 986.494 305.396 985.597C301.51 984.548 297.492 984.068 293.467 984.171C293.012 983.183 292.22 982.39 291.235 981.931C285.71 978.313 279.103 979.723 274.835 982.374C269.405 985.495 264.836 991.933 259.984 993.034C257.805 993.322 255.589 993.053 253.542 992.251C253.185 992.223 252.841 992.108 252.538 991.918C251.881 990.732 251.155 989.586 250.364 988.485C239.166 969.358 229.818 951.699 223.443 932.07C225.228 933.095 226.937 934.246 228.558 935.515C232.768 939.017 237.232 943.496 242.417 942.968C248.966 942.753 253.277 936.727 249.599 929.62C247.634 925.58 243.886 922.444 242.05 918.197C241.485 916.944 241.026 915.646 240.678 914.316C244.743 915.844 248.998 920.931 251.861 924.915C259.749 935.524 260.38 948.579 268.236 959.782C271.931 964.111 275.825 962.872 277.414 959.796C280.441 962.976 283.287 966.169 286.963 968.316C296.735 973.451 305.826 970.296 308.885 961.573C312.02 963.755 315.155 965.937 318.528 966.913C325.965 969.419 334.587 967.286 336.738 960.009C337.41 957.064 337.31 953.995 336.447 951.1C345.872 953.48 357.384 961.085 364.69 953.875C367.304 951.925 368.43 948.483 367.829 944.751C369.635 943.923 371.337 942.884 372.898 941.655C375.494 938.913 376.284 934.896 376.124 930.74C375.188 916.517 361.446 906.676 349.478 902.275C349.246 902.091 349.066 902.103 348.835 901.919C348.914 901.52 349.224 901.299 349.304 900.898C352.392 886.619 333.304 883.065 324.221 884.831L322.957 884.911C322.258 874.441 310.049 872.636 300.807 875.204C299.103 875.704 297.297 875.823 295.593 876.328C295.373 873.763 294.357 871.331 292.688 869.371C288.665 864.467 282.347 864.868 278.238 866.715C275.805 867.982 273.486 869.456 271.307 871.12C270.896 870.075 270.189 869.173 269.271 868.525C268.353 867.878 267.265 867.515 266.142 867.48C261.349 867.387 257.644 870.795 255.305 874.513C254.576 875.948 254.027 877.372 253.348 879.002C250.72 878.771 247.84 882.524 246.592 884.785C242.953 890.569 241.662 896.206 236.492 898.913C231.762 901.196 226.433 899.748 220.692 898.128C218.377 897.364 216.117 896.446 213.925 895.382C210.014 878.174 207.107 861.298 204.691 844.194C208.493 845.923 212.039 848.168 215.228 850.866C221.982 856.39 233.5 868.952 239.263 860.052C239.987 858.484 240.296 856.757 240.161 855.036C244.689 856.933 249.528 858.608 254.04 858.323C262.136 858.405 270.715 849.73 264.493 840.602C262.535 838.047 260.059 835.936 257.227 834.405C254.396 832.875 251.272 831.961 248.062 831.724C242.986 831.251 234.675 833.166 233.974 829.045C233.774 828.264 234.652 827.415 236.102 825.934C236.955 825.291 237.752 824.577 238.485 823.8C244.684 826.501 251.307 828.095 258.055 828.512C270.866 829.09 283.118 827.521 295.526 826.537C302.697 825.885 313.63 825.59 313.086 815.707C312.858 813.752 311.998 811.926 310.636 810.505C315.388 809.015 320.322 807.51 323.33 803.553C327.972 798.101 322.237 790.133 316.199 785.953C315.855 785.758 315.543 785.51 315.274 785.218C320.004 782.935 323.889 779.516 321.757 772.707C316.33 759.562 297.126 748.48 285.711 752.574C284.859 752.826 284.057 753.273 283.206 753.526C282.879 752.386 282.292 751.337 281.493 750.461C277.239 745.374 270.357 745.016 265.707 746.898C262.941 748.263 261.202 750.753 259.231 753.06C258.3 752.505 257.205 752.293 256.135 752.461C251.904 753.125 249.002 756.085 245.999 758.651C248.936 753.705 250.148 748.467 248.602 743.213C247.914 741.328 246.9 739.578 245.606 738.045C248.775 733.282 251.611 727.945 251.436 721.609C251.855 715.433 247.816 708.35 241.894 706.741C243.028 703.745 243.45 700.527 243.127 697.339C241.463 684.552 230.896 678.476 219.921 682.146C217.778 682.831 215.749 683.828 213.899 685.106C214.619 675.142 215.346 663.79 206.729 654.615C202.934 649.896 197.173 647.483 192.27 648.389C181.995 651.222 176.942 661.459 173.514 671.594C172.391 669.132 170.758 666.936 168.722 665.153C162.279 659.411 152.726 662.198 149.68 668.148C147.794 671.55 146.766 675.36 146.685 679.249L146.736 679.448C139.34 673.569 135.802 679.748 136.245 689.234C136.125 697.97 138.863 707.12 142.765 715.799C138.54 715.074 136.693 718.564 137.596 723.465L137.849 724.441C134.779 719.676 130.669 716.565 125.24 719.685C124.549 720.071 123.934 720.58 123.428 721.189C120.133 714.851 116.246 708.353 109.92 705.183C103.463 702.219 99.1032 708.049 99.1761 713.995C99.2167 714.091 99.2351 714.195 99.2301 714.298C99.2251 714.402 99.1967 714.503 99.1471 714.595C96.2225 711.805 93.5555 708.604 89.9529 707.441C81.922 704.775 74.7528 710.387 75.6644 718.858C75.7523 719.788 75.9292 720.706 76.1926 721.602C67.7054 727.094 73.5396 741.805 80.6399 750.083C77.2101 750.301 74.3943 751.47 73.9111 755.269C72.9675 763.657 79.5765 772.169 86.0698 778.106C87.5713 779.532 89.1954 780.823 90.9235 781.964C90.4506 783.195 90.296 784.525 90.4742 785.831C90.6525 787.138 91.1576 788.378 91.943 789.437C101.782 801.906 119.127 802.991 130.791 806.22C134.111 807.178 137.362 808.364 140.519 809.77C137.175 810.644 134.2 812.569 132.032 815.261C130.953 816.665 130.395 818.399 130.452 820.168C130.509 821.937 131.178 823.631 132.345 824.962C133.913 826.451 135.894 827.431 138.029 827.776C140.766 828.64 143.609 829.127 146.478 829.224C149.959 829.202 153.489 829.376 157.1 829.147C156.747 829.968 156.601 830.863 156.675 831.753C157.781 837.436 165.176 838.357 169.401 839.08C171.636 839.237 173.883 839.095 176.081 838.658C179.518 842.011 190.841 841.096 193.809 840.511C195.45 840.258 197.071 839.891 198.662 839.413C200.746 855.943 203.554 872.428 206.898 888.879C207.195 889.904 207.406 890.953 207.527 892.013C206.459 892.452 205.43 892.982 204.451 893.596C202.997 894.438 201.432 895.072 199.801 895.478C193.71 897.45 185.669 896.177 181.891 888.676C180.127 885.416 179.282 879.32 176.904 875.106C176.167 874.015 175.201 873.096 174.074 872.414C172.947 871.732 171.685 871.303 170.376 871.155C167.797 866.163 167.78 859.022 164.298 854.081C163.588 853.189 162.644 852.512 161.572 852.124C160.5 851.736 159.342 851.653 158.225 851.884C157.409 850.151 156.542 848.222 155.729 846.492C152.724 839.144 144.489 830.739 139.732 838.578C139.473 838.992 139.393 839.393 139.133 839.806C130.846 831.206 121.666 816.315 110.951 824.529C110.242 825.2 109.638 825.974 109.161 826.826C105.679 821.889 102.227 816.355 96.593 813.737C88.0059 808.924 82.3144 817.417 82.0738 824.97C81.9952 826.624 82.1169 828.281 82.4362 829.906C74.7228 825.634 66.3814 823.186 61.8112 829.625C54.1168 842.406 63.8841 858.851 75.4038 870.024C75.917 870.586 76.3793 870.954 76.8926 871.517C76.5411 871.733 76.2406 872.022 76.0119 872.366C72.9285 875.338 73.1322 881.077 74.5271 885.75C78.5441 897 90.3454 903.594 100.304 907.327C100.717 907.5 101.077 907.477 101.49 907.648C100.926 911.85 104.358 916.592 108.215 918.732C110.823 920.061 113.707 920.762 116.635 920.778C118.916 920.82 121.177 920.338 123.243 919.368C124.832 921.251 127.28 921.493 129.266 921.365C134.14 921.056 139.31 918.349 143.412 917.891C146.114 917.915 148.81 918.142 151.478 918.571C151.393 925.321 154.528 932.461 161.962 934.966C175.214 940.078 189.699 935.789 196.145 925.265C199.394 920.1 199.176 912.18 201.413 908.071C202.453 906.417 204.648 905.683 207.096 905.926C208.41 906.041 209.414 906.374 210.367 906.512C214.509 923.904 219.423 941.446 227.436 958.197C230.038 963.988 232.999 969.746 235.962 975.51C235.154 982.304 231.368 986.115 225.334 986.892C218.604 987.12 212.861 980.541 206.051 976.208C202.915 974.323 199.357 973.253 195.702 973.094C192.734 973.679 189.759 975.652 189.124 978.867C186.817 977.79 184.23 977.468 181.729 977.946C176.877 979.044 174.249 983.775 176.547 988.39C172.575 988.642 168.986 989.662 166.445 992.601C162.041 996.847 162.678 1003.55 167.503 1008.01C165.521 1010.28 164.33 1013.14 164.109 1016.16C163.469 1025.72 172.021 1037.47 181.842 1037.84L182.203 1037.82C182.66 1044.54 187.651 1051.76 193.786 1046.41C196.12 1044.12 197.845 1041.28 198.803 1038.16C200.453 1041.13 202.748 1043.7 205.52 1045.67C206.826 1046.7 208.434 1047.28 210.1 1047.32C211.766 1047.36 213.398 1046.85 214.749 1045.88C216.562 1044.38 217.579 1041.93 218.467 1039.69C218.619 1039.16 218.725 1038.63 218.784 1038.08C226.18 1043.96 233.473 1039.53 234.712 1028.74C234.791 1027.75 234.779 1026.76 234.677 1025.77C236.118 1024.66 237.317 1023.27 238.198 1021.68C239.08 1020.09 239.625 1018.33 239.801 1016.52C239.996 1013.73 238.645 1010.64 237.394 1007.94C234.28 1001.6 227.268 996.485 231.231 992.667C232.773 990.74 234.787 989.245 237.079 988.329C238.502 987.446 240.899 987.493 241.347 985.678C242.676 987.975 244.055 990.466 245.565 992.751C245.499 993.08 245.524 993.422 245.638 993.738C250.659 1000.36 248.197 1007.86 249.6 1016.1C250.422 1021.08 252.278 1025.83 255.048 1030.04C255.456 1030.72 255.928 1031.35 256.457 1031.94C257.484 1038.02 259.818 1045.61 265.509 1047.04C266.601 1047.23 267.719 1047.23 268.809 1047.03C271.259 1050.26 274.277 1053.03 277.715 1055.19C281.774 1058.11 286.324 1060.8 290.035 1060.96C287.922 1066.25 274.9 1061.32 269.398 1068.41C268.547 1069.21 267.889 1070.2 267.473 1071.29C267.057 1072.38 266.894 1073.55 266.996 1074.71C260.216 1079.71 268.805 1094.44 279.529 1094.75C281.665 1094.59 283.698 1093.77 285.341 1092.4C286.117 1093.24 287.102 1093.86 288.194 1094.2C292.088 1094.35 293.886 1090.66 294.599 1087.05C298.412 1087.6 301.393 1084.24 301.926 1080.63C302.099 1077.05 300.184 1073.2 299.224 1069.5C298.637 1067.95 298.651 1065.17 298.962 1064.95L299.979 1062.5C309.709 1072.71 320.299 1082.06 331.632 1090.45C346.814 1101.59 363.193 1110.28 379.632 1117.77C396.994 1125.99 415.221 1131.18 432.928 1132.24C437.954 1132.52 443.112 1132.59 448.035 1132.48C448.544 1132.53 449.056 1132.4 449.484 1132.13C449.912 1131.85 450.232 1131.43 450.389 1130.94C453.583 1127.57 451.733 1126.1 448.946 1126.67ZM182.858 798.164C177.078 793.218 172.939 786.631 170.989 779.277C170.696 778.32 170.503 777.336 170.411 776.339C176.312 782.114 182.473 787.477 188.453 792.851C190.866 795.079 193.458 797.295 195.872 799.523C196.045 800.9 196.038 802.289 196.161 803.471C195.837 803.538 195.5 803.489 195.208 803.333C190.744 802.596 186.515 800.825 182.858 798.161V798.164ZM213.053 807.759C210.206 808.621 207.21 808.878 204.257 808.513C203.215 808.381 202.183 808.181 201.167 807.914C201.477 807.697 201.686 807.089 201.997 806.87C202.985 805.022 203.376 804.403 204.545 802.543C206.794 798.834 209.392 795.348 212.305 792.134C216.868 787.085 225.691 780.773 233.59 773.728C233.199 774.347 232.809 774.966 232.42 775.587C228.825 782.955 226.561 792.62 222.741 798.416C219.42 802.591 217.342 805.897 213.053 807.756V807.759Z" fill="#679505"/>
<path d="M375.529 1084.54C378.924 1080.13 382.54 1076.83 386.027 1071.9C386.127 1071.75 386.227 1071.49 386.334 1071.34C395.784 1065.22 407.003 1058.21 416.316 1050.06C431.007 1037.11 443.651 1020.86 455.021 1003.77C469.583 982.925 480.633 959.121 488.409 933.979C491.378 922.995 501.166 898.982 494.2 890.371C487.41 885.943 469.978 898.126 463.234 902.866C436.149 923.071 414.064 949.225 398.68 979.313C388.524 1000.06 385.356 1024.58 388.553 1046.83C388.952 1051.87 389.577 1058.16 388.503 1063.02C387.728 1065.67 386.567 1068.19 385.056 1070.5C384.865 1070.63 384.691 1070.78 384.539 1070.95C384.409 1071.15 384.34 1071.38 384.339 1071.62C382.315 1074.31 380.113 1076.86 377.749 1079.27C377.131 1079.99 376.516 1080.84 375.898 1081.56C376.141 1077.19 376.385 1072.82 376.522 1068.34C376.531 1049.61 374.552 1031.27 372.782 1012.91C371.995 1003.2 371.1 993.386 369.998 983.722C376.903 976.034 384.134 968.929 390.399 960.557C403.561 943.166 415.063 924.579 424.755 905.04C437.226 878.24 452.424 851.321 456.443 821.083C456.653 814.683 457.214 804.03 451.715 801.464C450.45 801.126 449.097 801.82 447.849 802.499L439.737 807.043C432.248 810.835 425.419 815.809 419.512 821.772C395.462 846.452 377.294 884.223 371.484 920.695C369.13 937.199 369.716 953.814 368.096 970.346V970.473C367.748 968.354 367.397 966.234 366.946 964.257C363.522 947.392 358.324 931.149 354.9 914.283C353.082 905.737 351.366 897.05 349.547 888.504V888.377C349.589 884.548 349.54 881.497 350.432 878.316C352.129 872.988 356.76 867.389 360.234 861.565C368.099 848.384 373.419 833.519 379.589 819.299C389.374 795.285 398.421 770.734 403.246 744.846C404.501 738.634 405.345 732.346 405.772 726.023C406.576 717.376 400.515 718.965 395.848 722.404C386.5 728.831 378.203 736.665 371.25 745.628C365.091 754.115 361.065 764.472 357.135 774.564C351.399 789.617 345.88 805.15 343.728 821.244C342.778 830.512 342.931 839.86 344.183 849.091C344.837 857.03 347.054 864.249 348.959 871.635C349.396 872.723 349.321 874.517 349.858 875.591C349.218 876.994 348.749 878.469 348.46 879.984L348.183 882.315C346.826 876.383 345.472 870.578 343.909 864.801C339.915 851.581 334.997 839.633 330.907 826.936C327.057 816.117 322.478 805.653 318.421 794.991C318.496 794.754 318.597 794.526 318.721 794.312C319.151 793.416 319.627 792.543 320.147 791.697C323.326 787.059 327.251 783.209 330.642 778.8C335.166 773.087 339.904 767.601 344.002 761.436C348.297 754.564 352.176 747.441 355.617 740.104C363.855 723.946 368.914 706.055 372.503 687.982C373.762 681.567 374.288 675.25 375.14 669.528C375.517 666.932 375.893 664.2 376.06 661.629C376.041 660.485 376.017 658.959 375.062 658.451C373.793 657.859 372.666 659.414 371.734 660.305C369.359 662.667 366.981 664.902 364.602 667.01C358.18 672.216 351.222 676.602 345.447 682.995C334.539 694.633 326.755 708.844 322.823 724.303C320.191 736.639 320.92 749.156 320.91 761.392C320.817 768.541 320.83 775.802 319.571 782.219C318.994 785.483 318.102 788.663 317.317 791.955C314.771 785.108 312.59 778.131 310.783 771.053C310.446 769.616 310.212 768.157 310.085 766.687C310.359 766.195 310.529 765.651 310.584 765.09C310.767 763.836 311.063 762.601 311.468 761.401C313.35 754.518 315.652 747.706 316.692 740.683C317.426 734.211 316.592 727.825 316.274 721.497C315.488 709.85 313.896 698.271 311.51 686.844C304.959 659.953 296.358 633.602 285.785 608.023C284.705 606.126 283.089 597.176 280.717 599.664C278.181 605.107 276.816 611.409 274.915 617.148C266.87 645.131 268.094 675.039 274.928 701.509C276.98 709.295 279.488 716.954 282.439 724.446C285.604 731.916 289.807 738.609 293.592 745.486C297.162 752.009 301.043 758.367 305.954 763.43C306.533 764.085 307.175 764.68 307.872 765.208C308.903 773.323 310.757 781.312 313.404 789.051C301.39 773.098 293.979 749.893 277.014 739.326C269.376 734.248 260.725 731.473 251.885 729.999C245.197 728.523 238.304 728.21 231.51 729.074C228.163 729.785 224.59 729.505 221.474 731.458C217.249 736.238 223.032 743.352 225.708 746.557C230.841 752.359 237.102 756.604 243.151 760.752C248.565 764.476 253.77 768.357 259.49 771.529C257.806 784.119 255.917 796.991 258.223 809.678C262.517 835.09 275.597 858.163 294.973 868.654C300.901 871.798 307.523 872.427 313.945 873.593C317.72 874.196 321.302 875.673 324.405 877.905C330.253 882.59 336.309 887.119 342.971 890.164C343.475 890.442 344.006 890.668 344.556 890.84C346.852 902.635 348.931 914.585 351.432 926.352C355.062 942.934 359.629 959.136 362.008 976.271C362.489 980.029 362.97 983.786 363.345 987.43C355.157 968.154 349.149 947.179 338.475 929.77C331.386 918.449 323.31 907.777 314.341 897.879C308.258 891.697 301.953 884.781 294.038 882.035C280.744 877.725 266.21 881.103 252.889 881.513C249.241 883.028 252.278 889.114 253.055 891.684C258.431 905.992 267.739 916.833 276.935 927.306C286.029 937.921 294.609 949.116 304.625 958.459C312.097 966.11 321.1 971.13 330.198 975.627C336.76 979.067 342.917 983.328 349.177 987.446C353.847 990.587 358.853 993.198 364.101 995.23C364.864 1003.41 365.521 1011.48 366.179 1019.67C367.591 1035.41 368.875 1049.76 369.134 1065.66C369.171 1074.32 368.786 1082.91 368.192 1091.53C361.502 1086.7 358.301 1077.07 354.585 1068.02C349.234 1055.24 342.534 1043.4 335.629 1031.85C328.619 1020.32 320.794 1010.29 313.797 999.521C304.206 984.259 294.101 969.448 282.552 956.363C277.208 950.463 270.936 945.579 263.76 943.117C258.787 940.607 258.333 945.001 259.045 950.002C263.53 973.988 264.996 999.527 274.168 1021.35C277.753 1030.13 281.996 1038.63 286.861 1046.77C290.209 1052.56 293.664 1058.46 298.144 1063.07C309.56 1074.52 323.643 1082.16 338.097 1086.82C343.165 1088.68 348.518 1088.72 353.874 1088.76C356.436 1088.83 358.999 1088.66 361.526 1088.23L362.051 1088.16C363.099 1089.62 364.318 1090.95 365.683 1092.12C366.409 1092.76 367.191 1093.34 368.021 1093.84C366.719 1109.95 364.315 1125.94 360.825 1141.72C359.807 1137.25 358.257 1132.93 356.207 1128.84C353.894 1124.74 350.59 1121.29 346.599 1118.8C337.391 1114.06 327.936 1113.44 319.04 1108.53C311.318 1104.74 305.461 1099.42 298.748 1093.32C294.486 1089.44 290.218 1085.18 284.939 1083.22C276.073 1080.09 266.199 1086.02 258.648 1092.78C255.858 1095.46 252.963 1098.15 250.387 1101.04C248.027 1104.3 249.867 1107.74 251.896 1109.89C256.166 1114.28 261.556 1116.6 267.042 1118.4C273.5 1120.53 279.845 1122.99 286.054 1125.76C293.461 1129.47 301.081 1133.4 309.743 1130.44C314.757 1128.99 319.229 1126.22 323.722 1125.35C333.255 1124.31 341.168 1133.3 348.638 1140.83C350.936 1143.11 353.73 1144.82 356.8 1145.84C357.807 1146.21 358.891 1146.33 359.954 1146.17C357.215 1158.4 354.688 1170.72 351.105 1182.68C350.706 1184 350.706 1183.75 350.206 1185.22V1185.47C350.206 1185.6 350.206 1185.6 350.106 1185.74V1185.87C350.007 1186.39 350.227 1186.87 350.649 1186.94C351.877 1187 353.1 1186.74 354.204 1186.2C355.685 1186.9 357.354 1179.79 357.758 1178.84C360.048 1171.26 362.02 1163.48 363.994 1155.82C366.268 1155.74 368.506 1155.22 370.584 1154.28C372.488 1153.24 374.234 1151.93 375.767 1150.39C375.985 1150.87 376.717 1150.77 377.344 1150.56C380.69 1149.85 384.161 1150.27 387.935 1150.01C392.294 1149.63 396.628 1148.99 400.915 1148.11C411.475 1145.66 421.574 1140.72 431.34 1134.67C448.215 1125.03 462.789 1111.83 474.052 1095.99C478.046 1089.96 482.354 1083.77 484.122 1076.39C484.412 1074.83 485.009 1072.83 484.045 1071.69C483.082 1070.55 481.415 1071.28 480.151 1071.07C477.797 1071.12 475.442 1070.98 473.113 1070.63C464.587 1069.11 455.959 1067.73 447.077 1070.09C428.888 1074.47 404.788 1096.1 394.824 1115.81C390.131 1124.35 387.149 1134.18 381.914 1141.39C379.055 1145.07 375.762 1148.38 372.105 1151.27C369.973 1152.72 367.478 1153.54 364.902 1153.65L364.694 1153.68C365.481 1150.51 366.267 1147.22 367.055 1144.05C371.214 1124.43 374.046 1104.54 375.529 1084.54ZM330.949 880.202C330.832 880.064 330.687 879.954 330.524 879.877C330.61 878.718 329.642 877.32 329.625 876.049C328.572 869.438 327.622 862.686 325.215 856.641C320.385 843.66 313.796 832.197 307.413 820.448C301.347 808.912 294.04 798.436 287.25 787.508L284.015 782.216C286.444 783.16 288.769 784.113 291.198 785.062C298.387 788.036 305.476 791.532 313.155 792.909C313.367 793.009 313.575 792.979 313.787 793.078C313.999 793.176 314.108 793.416 314.319 793.515L314.529 793.487C316.843 800.308 319.471 806.96 321.784 813.657C325.295 822.992 327.845 831.311 330.73 840.859C333.825 850.632 336.902 859.007 339.377 869.116C340.839 875.162 342.095 881.363 343.244 887.452C338.933 885.416 334.817 882.989 330.949 880.202Z" fill="#82B11D"/>
<path d="M413.485 1095.85C416.408 1095.7 419.003 1096.18 422.157 1095.83C422.248 1095.83 422.386 1095.76 422.477 1095.75C428.333 1098.16 435.184 1101.14 441.738 1102.54C452.115 1104.7 462.938 1104.2 473.59 1102.61C486.846 1101.05 499.872 1096.18 512.155 1088.88C517.357 1085.45 529.983 1079.78 530.543 1071.95C529.616 1066.14 518.489 1062.1 514.174 1060.56C497.04 1054.88 478.561 1054.72 461.33 1060.09C449.776 1064.04 439.472 1073.61 432.421 1085.66C430.698 1088.21 428.601 1091.46 426.389 1093.11C425.145 1093.89 423.757 1094.42 422.307 1094.65C422.19 1094.61 422.067 1094.58 421.942 1094.58C421.813 1094.6 421.698 1094.67 421.62 1094.78C419.84 1094.9 418.054 1094.86 416.282 1094.66C415.783 1094.65 415.231 1094.7 414.73 1094.69C416.444 1092.81 418.157 1090.93 419.872 1088.93C426.833 1080.28 432.893 1070.72 439.044 1061.25C442.349 1056.34 445.657 1051.3 448.829 1046.23C454.303 1046.5 459.678 1047.23 465.159 1046.84C476.608 1046.1 487.913 1043.88 498.792 1040.24C513.47 1034.77 529.222 1030.76 541.974 1019.02C544.431 1016.18 548.6 1011.57 547.466 1007.34C547.072 1006.58 546.415 1005.98 545.616 1005.67L540.857 1003.28C536.817 1000.95 532.352 999.449 527.725 998.871C509.453 996.941 488.54 1004.32 472.797 1017.94C465.775 1024.26 459.827 1032.26 453.075 1039L453.028 1039.06C453.683 1037.89 454.337 1036.71 454.9 1035.55C459.866 1025.86 463.929 1015.48 468.896 1005.79C471.381 1000.84 473.957 995.876 476.441 990.917L476.488 990.857C477.623 989.27 478.996 987.868 480.559 986.701C483.181 985.18 487.015 985.161 490.494 984.395C498.366 982.669 505.903 978.75 513.522 975.601C526.148 969.934 538.691 963.606 550.133 954.323C552.967 952.102 555.624 949.663 558.08 947.029C561.595 943.481 558.709 940.856 555.664 939.857C549.943 937.679 543.838 936.69 537.721 936.951C532.239 937.457 526.865 940.009 521.629 942.493C513.866 946.266 506.007 950.381 499.215 956.625C495.282 960.547 491.865 964.953 489.045 969.738C486.349 973.768 484.504 978.33 482.482 982.799C482.245 983.543 481.55 984.33 481.356 985.126C480.575 985.431 479.846 985.855 479.194 986.382L478.224 987.306C479.913 983.811 481.557 980.381 483.109 976.846C486.504 968.527 489.08 960.283 492.246 952.152C494.805 945.02 496.957 937.649 499.38 930.476C499.495 930.41 499.618 930.361 499.747 930.331C500.24 930.156 500.745 930.016 501.258 929.914C504.185 929.533 507.1 929.932 510.023 929.773C513.868 929.79 517.711 929.585 521.533 929.157C525.727 928.36 529.848 927.217 533.854 925.742C542.975 922.847 551.537 917.385 559.607 911.025C562.467 908.76 565.012 906.133 567.461 903.963C568.569 902.971 569.723 901.92 570.743 900.825C571.013 900.565 571.224 900.25 571.361 899.901C571.499 899.553 571.561 899.179 571.542 898.805C571.28 897.828 570.275 897.921 569.591 897.817C567.815 897.592 566.085 897.306 564.399 896.96C560.033 895.806 555.767 893.975 551.207 893.728C542.719 893.066 534.266 895.378 527.297 900.268C521.718 904.508 517.346 910.694 512.798 916.344C510.108 919.594 507.416 922.956 504.556 925.222C503.125 926.41 501.607 927.384 500.086 928.469C501.602 924.326 503.309 919.499 505.378 915.189C505.773 914.356 506.226 913.553 506.734 912.784C507.031 912.703 507.301 912.544 507.516 912.322C508.037 911.855 508.608 911.448 509.22 911.109C512.489 908.973 515.891 907.103 518.894 904.435C521.575 901.853 523.628 898.438 525.86 895.342C529.971 889.387 533.667 883.157 536.925 876.696C544.572 860.266 551.095 843.336 556.447 826.022C556.74 824.55 559.455 819.518 557.63 819.352C554.65 820.461 551.791 822.615 548.944 824.212C535.505 832.679 524.861 847.171 517.62 863.185C515.474 868.002 513.58 872.927 511.946 877.941C510.371 883.146 509.478 888.567 508.357 893.841C507.179 898.806 506.515 903.879 506.376 908.98C506.353 909.609 506.375 910.239 506.443 910.865C503.749 915.333 501.486 920.047 499.683 924.943C501.056 910.916 506.868 896.092 504.364 881.808C503.316 875.449 501.272 869.295 498.309 863.573C496.419 859.336 493.936 855.39 490.935 851.853C489.403 850.326 488.153 848.218 486.248 847.392C482.872 847.258 482.42 853.75 482.244 856.713C482.201 862.15 482.648 867.58 483.58 872.938C484.248 877.657 484.778 882.334 485.766 886.969C480.453 891.852 474.958 896.755 471.12 903.888C463.311 918.008 459.696 935.912 463.139 951.497C464.217 956.234 466.492 960.195 468.491 964.292C469.719 966.734 470.517 969.368 470.853 972.081C471.207 977.461 472.037 982.799 473.333 988.033C473.42 988.438 473.536 988.835 473.683 989.223C470.17 995.941 466.521 1002.62 463.098 1009.44C458.315 1019.11 454.028 1029.12 448.565 1038.36C447.352 1040.36 446.139 1042.36 444.928 1044.25C448.986 1030.81 454.498 1017.79 456.92 1003.83C458.452 994.534 459.355 985.144 459.622 975.725C459.613 969.499 459.793 962.809 457.814 957.153C454.38 947.795 447.62 941.301 442.422 934.107C440.476 932.785 439.367 937.28 438.706 938.899C435.43 948.485 434.93 958.653 434.523 968.587C434.024 978.53 433.118 988.457 433.444 998.322C433.433 1006 434.979 1013.3 436.755 1020.42C437.964 1025.65 438.714 1031.03 439.551 1036.4C440.151 1040.42 441.075 1044.39 442.315 1048.27C439.566 1052.47 436.823 1056.56 434.027 1060.71C428.717 1068.76 423.873 1076.1 418.069 1083.59C414.867 1087.61 411.531 1091.36 408.105 1095.01C407.362 1089.08 409.727 1082.85 411.681 1076.61C414.291 1067.67 416.378 1058.59 417.93 1049.4C419.559 1040.19 420.317 1031.22 421.667 1022.37C423.834 1010.05 425.234 997.611 425.86 985.119C426.14 979.52 425.395 973.917 423.664 968.585C422.712 964.67 420.908 966.448 419.32 969.152C412.112 982.717 403.181 995.327 398.551 1010.49C396.621 1016.65 395.074 1022.91 393.92 1029.26C392.897 1033.79 392.3 1038.41 392.139 1043.05C392.323 1054.37 394.46 1065.57 398.454 1076.16C399.751 1079.6 401.52 1082.84 403.711 1085.8C404.625 1087.22 405.66 1088.55 406.806 1089.79L407.031 1090.05C406.883 1091.32 406.85 1092.61 406.931 1093.89C406.967 1094.59 407.05 1095.29 407.177 1095.98C400.848 1102.57 393.99 1108.64 386.672 1114.11C387.979 1111.39 388.996 1108.54 389.707 1105.6C390.351 1102.31 390.381 1098.94 389.794 1095.64C388.065 1088.35 384.715 1082.82 383.168 1075.62C381.651 1069.59 381.407 1063.88 381.129 1057.35C380.956 1053.2 380.922 1048.86 379.65 1045.03C377.453 1038.67 371.51 1035.94 366.139 1034.88C364.088 1034.51 362.02 1034.26 359.942 1034.11C357.841 1034.31 357.257 1036.92 357.229 1039.03C357.347 1043.26 358.219 1047.44 359.804 1051.36C361.432 1055.94 362.968 1060.52 364.274 1065.3C365.703 1071.11 367.129 1077.16 371.51 1080.59C373.946 1082.7 376.668 1083.89 378.694 1085.99C382.688 1090.79 382.351 1099.33 382.389 1106.94C382.416 1109.27 382.832 1111.58 383.621 1113.78C383.846 1114.48 384.21 1115.13 384.691 1115.68C379.114 1119.81 373.58 1124.1 367.783 1127.64C367.139 1128.03 367.231 1127.91 366.496 1128.31L366.403 1128.43C366.357 1128.49 366.357 1128.49 366.265 1128.5L366.219 1128.56C366.103 1128.65 366.021 1128.78 365.986 1128.93C365.95 1129.07 365.964 1129.22 366.025 1129.36C366.43 1130.02 366.985 1130.58 367.647 1130.99C367.951 1132.13 371.223 1129.77 371.728 1129.56C375.408 1127.33 379.048 1124.82 382.639 1122.38C383.47 1123.54 384.509 1124.54 385.704 1125.32C386.767 1125.88 387.921 1126.25 389.113 1126.4C389.013 1126.74 389.331 1127.1 389.648 1127.35C391.178 1128.88 392.338 1130.99 393.862 1132.97C395.624 1135.17 397.5 1137.28 399.484 1139.29C412.435 1150.68 429.316 1156.59 446.546 1155.75C450.297 1155.18 454.228 1154.7 457.638 1152.28C458.33 1151.71 459.296 1151.12 459.355 1150.06C459.414 1149 458.51 1148.42 458.11 1147.62C457.184 1146.31 456.349 1144.94 455.614 1143.51C452.948 1138.09 450.19 1132.67 445.951 1128.83C437.432 1120.78 420.272 1117.41 409.179 1120.99C404.232 1122.34 399.447 1125.22 394.787 1125.65C392.295 1125.76 389.802 1125.47 387.405 1124.78C385.947 1124.18 384.693 1123.17 383.793 1121.88L383.703 1121.78C385.177 1120.76 386.698 1119.67 388.171 1118.64C397.203 1111.73 405.668 1104.11 413.485 1095.85ZM472.476 976.769C472.483 976.64 472.469 976.51 472.436 976.384C472.899 975.897 473.051 974.716 473.516 974.117C475.746 970.513 477.601 966.69 479.053 962.709C482.044 954.037 483.805 945.089 485.75 936.125C487.736 927.438 488.859 918.546 490.343 909.735L491.084 905.497C491.654 907.279 492.183 909.009 492.748 910.789C494.365 916.145 495.752 921.688 498.152 926.583C498.196 926.746 498.286 926.848 498.328 927.011C498.371 927.174 498.328 927.345 498.367 927.51L498.457 927.61C496.802 932.044 495.326 936.573 493.716 940.946C491.58 947.204 489.456 952.46 487.003 958.468C484.547 964.7 482.601 970.272 479.782 976.315C478.092 979.918 476.265 983.479 474.439 986.927C473.561 983.589 472.905 980.195 472.476 976.769Z" fill="#C2EA6C"/>
<path fill-rule="evenodd" clip-rule="evenodd" d="M282.254 1140.15H481.747C481.747 1140.15 468.027 1166.39 454.982 1191.35C448.012 1204.67 437.526 1215.84 424.661 1223.63C411.796 1231.42 397.043 1235.54 382.003 1235.54C366.962 1235.54 352.21 1231.42 339.345 1223.63C326.479 1215.84 315.993 1204.67 309.023 1191.35C295.974 1166.38 282.254 1140.15 282.254 1140.15Z" fill="#B2B7F0"/>
<mask id="mask0_12_472" style="mask-type:luminance" maskUnits="userSpaceOnUse" x="282" y="1140" width="200" height="96">
<path d="M282.254 1140.15H481.747C481.747 1140.15 468.027 1166.39 454.982 1191.35C448.012 1204.67 437.526 1215.84 424.661 1223.63C411.796 1231.42 397.043 1235.54 382.003 1235.54C366.962 1235.54 352.21 1231.42 339.345 1223.63C326.479 1215.84 315.993 1204.67 309.023 1191.35C295.974 1166.38 282.254 1140.15 282.254 1140.15Z" fill="white"/>
</mask>
<g mask="url(#mask0_12_472)">
<path fill-rule="evenodd" clip-rule="evenodd" d="M459.675 1140.15C426.192 1138.9 308.824 1134.46 280.809 1140.15C269.11 1142.53 291.571 1174.3 291.571 1174.3C291.571 1174.3 453.714 1153.3 481.729 1147.61C489.334 1146.07 467.434 1140.44 459.675 1140.15Z" fill="black" fill-opacity="0.2"/>
</g>
<path fill-rule="evenodd" clip-rule="evenodd" d="M489.737 1118.34H274.26V1118.37C274.26 1122.21 275.016 1126.01 276.486 1129.56C277.955 1133.11 280.109 1136.33 282.824 1139.05C285.54 1141.76 288.763 1143.92 292.311 1145.38C295.859 1146.85 299.661 1147.61 303.501 1147.61H460.496C464.336 1147.61 468.138 1146.85 471.686 1145.38C475.234 1143.92 478.457 1141.76 481.173 1139.05C483.888 1136.33 486.042 1133.11 487.511 1129.56C488.981 1126.01 489.737 1122.21 489.737 1118.37V1118.34Z" fill="#1A2283"/>
<path fill-rule="evenodd" clip-rule="evenodd" d="M1380.75 142.284C1380.75 128.468 1375.26 115.217 1365.49 105.448C1355.72 95.6785 1342.47 90.1903 1328.66 90.1906H1060.34C1046.53 90.1903 1033.28 95.6785 1023.51 105.448C1013.74 115.217 1008.25 128.468 1008.25 142.284V142.316C1008.25 156.133 1013.74 169.383 1023.51 179.153C1033.28 188.922 1046.53 194.41 1060.34 194.41H1328.66C1342.47 194.41 1355.72 188.922 1365.49 179.153C1375.26 169.383 1380.75 156.133 1380.75 142.316V142.284Z" fill="#737CE3"/>
<path fill-rule="evenodd" clip-rule="evenodd" d="M1217.01 162.612C1216.38 163.433 1214.86 163.022 1212.78 161.476C1210.19 159.409 1207.89 157.016 1205.92 154.357L1193.22 137.811C1191.06 135.053 1189.23 132.056 1187.75 128.878C1186.56 126.171 1186.25 124.186 1186.88 123.368C1187.51 122.547 1189.03 122.955 1191.11 124.502C1193.7 126.569 1196 128.963 1197.97 131.622L1210.67 148.168C1212.83 150.926 1214.66 153.923 1216.14 157.1C1217.32 159.807 1217.63 161.793 1217.01 162.612Z" fill="white"/>
<path fill-rule="evenodd" clip-rule="evenodd" d="M1216.26 123.252C1216.89 124.073 1216.58 126.057 1215.39 128.765C1213.92 131.941 1212.08 134.937 1209.93 137.695L1197.22 154.241C1195.26 156.901 1192.95 159.295 1190.37 161.362C1188.29 162.908 1186.77 163.317 1186.14 162.496C1185.5 161.676 1185.82 159.693 1187.01 156.985C1188.48 153.808 1190.31 150.811 1192.47 148.053L1205.18 131.507C1207.14 128.848 1209.45 126.455 1212.03 124.388C1214.11 122.841 1215.63 122.431 1216.26 123.252Z" fill="white"/>
<path fill-rule="evenodd" clip-rule="evenodd" d="M1223 142.074C1223 143.234 1221.7 144.347 1219.39 145.169C1216.57 146.066 1213.63 146.499 1210.67 146.45H1192.71C1189.76 146.499 1186.82 146.066 1184 145.169C1181.69 144.348 1180.39 143.235 1180.39 142.074C1180.39 140.913 1181.69 139.8 1184 138.978C1186.82 138.082 1189.76 137.649 1192.71 137.697H1210.68C1213.63 137.649 1216.58 138.082 1219.39 138.978C1221.7 139.799 1223 140.912 1223 142.074H1223ZM1152.29 162.612C1151.66 163.433 1150.14 163.022 1148.06 161.476C1145.47 159.409 1143.17 157.016 1141.2 154.357L1128.5 137.811C1126.34 135.053 1124.51 132.056 1123.03 128.878C1121.85 126.171 1121.54 124.186 1122.16 123.368C1122.79 122.547 1124.31 122.955 1126.39 124.502C1128.98 126.569 1131.28 128.963 1133.25 131.622L1145.95 148.168C1148.11 150.926 1149.94 153.923 1151.42 157.1C1152.61 159.807 1152.91 161.793 1152.29 162.612Z" fill="white"/>
<path fill-rule="evenodd" clip-rule="evenodd" d="M1151.55 123.252C1152.17 124.073 1151.86 126.057 1150.67 128.765C1149.2 131.941 1147.37 134.938 1145.21 137.695L1132.5 154.244C1130.54 156.904 1128.23 159.298 1125.65 161.365C1123.57 162.911 1122.05 163.32 1121.42 162.499C1120.79 161.679 1121.1 159.696 1122.29 156.988C1123.76 153.811 1125.6 150.814 1127.75 148.056L1140.46 131.51C1142.42 128.851 1144.73 126.458 1147.31 124.391C1149.39 122.845 1150.92 122.434 1151.55 123.255V123.252Z" fill="white"/>
<path fill-rule="evenodd" clip-rule="evenodd" d="M1158.28 142.074C1158.28 143.234 1156.98 144.347 1154.67 145.169C1151.85 146.066 1148.91 146.499 1145.95 146.45H1127.99C1125.04 146.499 1122.09 146.066 1119.28 145.169C1116.97 144.348 1115.67 143.235 1115.67 142.074C1115.67 140.913 1116.97 139.8 1119.28 138.978C1122.09 138.082 1125.04 137.649 1127.99 137.697H1145.95C1148.91 137.649 1151.85 138.082 1154.67 138.978C1156.98 139.799 1158.28 140.912 1158.28 142.074ZM1087.81 162.612C1087.18 163.433 1085.66 163.022 1083.58 161.476C1081 159.409 1078.69 157.016 1076.73 154.357L1064.02 137.811C1061.86 135.053 1060.03 132.056 1058.56 128.878C1057.37 126.171 1057.06 124.186 1057.69 123.368C1058.32 122.547 1059.84 122.955 1061.92 124.502C1064.5 126.569 1066.81 128.963 1068.77 131.622L1081.48 148.168C1083.63 150.926 1085.47 153.923 1086.94 157.1C1088.13 159.807 1088.44 161.793 1087.81 162.612Z" fill="white"/>
<path fill-rule="evenodd" clip-rule="evenodd" d="M1087.07 123.252C1087.7 124.073 1087.39 126.057 1086.2 128.765C1084.73 131.941 1082.89 134.937 1080.74 137.695L1068.03 154.241C1066.06 156.901 1063.76 159.295 1061.17 161.362C1059.1 162.908 1057.57 163.317 1056.94 162.496C1056.31 161.676 1056.63 159.693 1057.82 156.985C1059.29 153.808 1061.12 150.811 1063.28 148.053L1075.98 131.507C1077.95 128.848 1080.26 126.455 1082.84 124.388C1084.92 122.841 1086.44 122.431 1087.07 123.252Z" fill="white"/>
<path fill-rule="evenodd" clip-rule="evenodd" d="M1093.8 142.074C1093.8 143.234 1092.5 144.347 1090.19 145.169C1087.38 146.066 1084.43 146.499 1081.48 146.45H1063.51C1060.56 146.499 1057.62 146.066 1054.8 145.169C1052.49 144.348 1051.19 143.235 1051.19 142.074C1051.19 140.913 1052.49 139.8 1054.8 138.978C1057.62 138.082 1060.56 137.649 1063.51 137.697H1081.48C1084.44 137.649 1087.38 138.082 1090.19 138.978C1092.5 139.799 1093.8 140.912 1093.8 142.074H1093.8ZM1338.72 162.616C1338.09 163.436 1336.57 163.026 1334.49 161.478C1331.9 159.412 1329.6 157.019 1327.63 154.36L1314.93 137.814C1312.77 135.056 1310.94 132.059 1309.46 128.881C1308.28 126.174 1307.97 124.189 1308.59 123.371C1309.22 122.55 1310.74 122.958 1312.82 124.506C1315.41 126.573 1317.71 128.966 1319.68 131.626L1332.38 148.171C1334.54 150.93 1336.37 153.926 1337.85 157.103C1339.04 159.811 1339.34 161.796 1338.72 162.616Z" fill="white"/>
<path fill-rule="evenodd" clip-rule="evenodd" d="M1337.97 123.258C1338.6 124.079 1338.29 126.063 1337.1 128.771C1335.63 131.948 1333.79 134.944 1331.64 137.702L1318.93 154.247C1316.97 156.907 1314.66 159.3 1312.08 161.368C1310 162.915 1308.48 163.324 1307.85 162.503C1307.22 161.682 1307.53 159.7 1308.72 156.992C1310.19 153.815 1312.03 150.817 1314.18 148.06L1326.89 131.513C1328.85 128.854 1331.16 126.462 1333.74 124.395C1335.82 122.847 1337.34 122.438 1337.97 123.258Z" fill="white"/>
<path fill-rule="evenodd" clip-rule="evenodd" d="M1344.71 142.078C1344.71 143.238 1343.41 144.35 1341.1 145.173C1338.28 146.07 1335.34 146.503 1332.38 146.455H1314.42C1311.46 146.504 1308.52 146.07 1305.71 145.173C1303.4 144.352 1302.1 143.24 1302.1 142.078C1302.1 140.916 1303.4 139.804 1305.71 138.982C1308.52 138.085 1311.46 137.652 1314.42 137.7H1332.38C1335.34 137.652 1338.28 138.085 1341.1 138.982C1343.41 139.803 1344.71 140.915 1344.71 142.078ZM1274.25 162.616C1273.62 163.436 1272.09 163.026 1270.01 161.478C1267.43 159.412 1265.13 157.019 1263.16 154.36L1250.46 137.814C1248.3 135.056 1246.46 132.059 1244.99 128.881C1243.8 126.174 1243.49 124.189 1244.12 123.371C1244.75 122.55 1246.27 122.958 1248.35 124.506C1250.93 126.573 1253.24 128.967 1255.21 131.626L1267.91 148.171C1270.07 150.93 1271.9 153.926 1273.37 157.103C1274.56 159.811 1274.88 161.796 1274.25 162.616Z" fill="white"/>
<path fill-rule="evenodd" clip-rule="evenodd" d="M1273.5 123.258C1274.13 124.079 1273.82 126.063 1272.63 128.771C1271.15 131.947 1269.32 134.944 1267.16 137.702L1254.46 154.247C1252.49 156.907 1250.19 159.3 1247.6 161.368C1245.52 162.915 1244 163.324 1243.37 162.503C1242.74 161.682 1243.06 159.7 1244.24 156.992C1245.72 153.815 1247.55 150.817 1249.71 148.06L1262.41 131.513C1264.38 128.854 1266.68 126.462 1269.27 124.395C1271.35 122.847 1272.87 122.438 1273.5 123.258Z" fill="white"/>
<path fill-rule="evenodd" clip-rule="evenodd" d="M1280.23 142.078C1280.23 143.238 1278.93 144.35 1276.62 145.173C1273.81 146.07 1270.86 146.503 1267.91 146.455H1249.95C1246.99 146.503 1244.05 146.07 1241.23 145.173C1238.92 144.352 1237.62 143.24 1237.62 142.078C1237.62 140.916 1238.92 139.804 1241.23 138.982C1244.05 138.085 1246.99 137.652 1249.95 137.7H1267.91C1270.86 137.652 1273.81 138.085 1276.62 138.982C1278.93 139.803 1280.23 140.915 1280.23 142.078Z" fill="white"/>
<path fill-rule="evenodd" clip-rule="evenodd" d="M804.249 0C816.777 0.00207945 828.901 4.44081 838.469 12.5292C848.037 20.6176 854.432 31.8329 856.519 44.1866C875.599 157.209 926.236 457.102 948.23 587.355C949.514 594.955 949.125 602.745 947.09 610.179C945.054 617.614 941.422 624.516 936.446 630.402C931.469 636.289 925.269 641.02 918.276 644.264C911.284 647.509 903.668 649.189 895.96 649.188H423.736C411.208 649.187 399.085 644.749 389.518 636.66C379.951 628.57 373.558 617.354 371.475 605C352.385 491.978 301.753 192.084 279.755 61.8321C278.475 54.2319 278.866 46.4439 280.903 39.0104C282.939 31.577 286.572 24.677 291.548 18.791C296.523 12.905 302.723 8.17454 309.713 4.92924C316.704 1.68394 324.319 0.00181805 332.026 0H804.249Z" fill="#192280"/>
<path fill-rule="evenodd" clip-rule="evenodd" d="M462.486 605.061C449.957 605.061 437.832 600.623 428.263 592.534C418.695 584.445 412.301 573.228 410.216 560.873C392.268 454.554 346.619 184.191 325.957 61.8321C324.673 54.2323 325.063 46.4438 327.097 39.0098C329.132 31.5757 332.764 24.6749 337.739 18.7884C342.715 12.9018 348.914 8.17122 355.905 4.92629C362.896 1.68135 370.511 0.000205942 378.219 2.09e-07H811.036C823.565 -0.00111196 835.69 4.4365 845.259 12.5254C854.828 20.6144 861.222 31.8315 863.306 44.1866C881.263 150.509 926.911 420.87 947.565 543.229C948.849 550.829 948.46 558.617 946.425 566.051C944.39 573.485 940.758 580.386 935.783 586.273C930.807 592.159 924.608 596.89 917.616 600.135C910.625 603.38 903.01 605.061 895.303 605.061H462.486Z" fill="#E7E7E7"/>
<path fill-rule="evenodd" clip-rule="evenodd" d="M600.683 93.3188C609.562 92.1865 618.795 90.9853 628.184 90.3622C634.228 89.9628 640.34 89.7222 646.408 89.9039C656.358 90.2518 666.253 91.5429 675.959 93.7601C678.156 94.1476 680.416 93.6518 682.249 92.3806C684.082 91.1094 685.339 89.1658 685.746 86.9726C686.153 84.7795 685.677 82.5145 684.422 80.6704C683.167 78.8263 681.235 77.5524 679.045 77.1261C668.55 75.5784 657.648 75.3108 646.65 75.2759C640.279 75.2589 633.881 75.2589 627.527 75.3967C617.861 75.6134 608.317 75.9509 599.126 76.4781C598.018 76.5767 596.94 76.8932 595.954 77.4093C594.968 77.9255 594.093 78.6313 593.381 79.4862C592.668 80.341 592.131 81.3281 591.801 82.3909C591.47 83.4537 591.353 84.5712 591.455 85.6794C591.558 86.7876 591.878 87.8648 592.398 88.849C592.917 89.8332 593.626 90.7052 594.483 91.4149C595.341 92.1246 596.329 92.6581 597.393 92.9848C598.457 93.3115 599.575 93.425 600.683 93.3188ZM600.346 153.872C609.718 153.25 646.954 152.454 683.783 152.203C704.221 152.065 724.522 152.303 739.961 151.91C746.117 151.745 751.52 151.546 755.878 151.235C758.111 151.027 760.17 149.941 761.603 148.215C763.035 146.489 763.723 144.265 763.515 142.032C763.308 139.798 762.222 137.739 760.496 136.307C758.77 134.874 756.546 134.186 754.312 134.394C741.05 135.872 717.673 137.126 692.973 137.54C680.524 137.748 667.754 137.67 655.772 137.566C629.239 137.333 606.546 136.737 599.464 136.978C597.224 137.095 595.122 138.097 593.62 139.764C592.119 141.431 591.341 143.626 591.458 145.866C591.575 148.106 592.577 150.208 594.244 151.709C595.91 153.211 598.105 153.989 600.346 153.872ZM601.103 223.372C631.146 222.758 659.944 221.938 688.19 221.012C707.745 220.381 727.031 219.603 746.278 218.808C778.344 217.476 810.289 215.99 843.142 213.335C844.252 213.239 845.333 212.923 846.321 212.407C847.309 211.891 848.185 211.185 848.9 210.33C849.614 209.474 850.152 208.485 850.483 207.421C850.814 206.357 850.931 205.237 850.828 204.127C850.725 203.017 850.403 201.939 849.882 200.954C849.36 199.969 848.649 199.096 847.789 198.387C846.93 197.677 845.938 197.145 844.872 196.82C843.806 196.495 842.686 196.384 841.576 196.494C809.053 199.901 777.419 202.598 745.612 204.197C726.471 205.157 707.27 205.684 687.799 206.038C659.633 206.558 630.904 206.514 600.947 206.462C598.704 206.483 596.562 207.393 594.991 208.994C593.42 210.594 592.549 212.753 592.57 214.995C592.591 217.238 593.501 219.38 595.102 220.951C596.702 222.522 598.861 223.393 601.103 223.372ZM524.987 455.096C524.866 454.975 524.797 454.776 524.667 454.62C524.192 454.01 523.786 453.349 523.457 452.649C522.32 450.155 521.473 447.538 520.932 444.851C519.255 437.338 518.762 429.22 518.278 425.684L515.399 401.534C513.67 385.738 512.404 369.208 509.529 353.145C507.663 342.027 504.647 331.133 500.53 320.638C493.483 303.243 482.59 298.531 472.458 300.044C463.371 301.402 453.636 308.967 446.409 320.414C444.737 323.072 443.142 325.78 441.628 328.531C439.414 332.543 437.335 336.632 435.274 340.73C431.755 347.734 428.34 354.788 425.236 361.981C423.139 366.857 421.173 371.793 419.408 376.808C418.698 378.92 418.85 381.228 419.832 383.228C420.814 385.229 422.546 386.761 424.652 387.492C426.757 388.222 429.066 388.092 431.076 387.129C433.086 386.166 434.634 384.448 435.384 382.35C437.381 376.513 439.673 370.791 442.137 365.144C444.652 359.396 447.35 353.734 450.116 348.105C452.044 344.189 453.989 340.281 456.064 336.443C457.406 333.953 458.819 331.502 460.301 329.094C464.529 322.272 469.526 316.86 474.912 316.004C479.346 315.305 482.658 319.091 485.805 326.681C489.594 336.126 492.39 345.94 494.148 355.963C497.096 371.655 498.41 387.815 500.217 403.245L503.303 427.79C504.055 433.037 505.067 447.441 509.035 457.002C512 464.136 516.764 468.822 522.531 469.841C528.591 470.914 534.799 467.732 539.796 461.196C546.193 452.819 551.096 438.623 553.093 433.989C561.47 414.553 568.144 394.349 575.916 374.646C579.167 366.382 582.634 358.22 586.5 350.223C588.671 345.73 591.402 339.217 595.301 334.298C597.083 332.059 599.037 330.062 601.592 329.569C604.92 328.921 607.652 331.177 610.47 333.806C615.649 338.629 620.403 345.572 625.176 351.442C629.827 357.148 634.617 361.877 639.433 364.211C644.265 366.497 649.599 367.515 654.934 367.168C663.234 366.796 671.908 363.615 680.377 361.116C686.836 359.219 693.112 357.422 698.767 360.027C703.565 362.24 706.495 367.142 709.045 372.545C713.948 382.938 716.939 395.439 721.253 403.557C728.127 416.464 737.74 423.597 748.668 427.115C763.771 431.992 781.823 429.441 798.907 425.006C799.981 424.721 800.988 424.228 801.87 423.554C802.753 422.88 803.494 422.038 804.052 421.078C804.609 420.117 804.972 419.056 805.12 417.955C805.267 416.855 805.196 415.735 804.911 414.662C804.626 413.589 804.133 412.582 803.459 411.699C802.784 410.816 801.943 410.075 800.983 409.518C800.022 408.96 798.961 408.597 797.86 408.45C796.759 408.302 795.64 408.373 794.567 408.658C782.939 411.795 770.775 414.243 759.812 412.764C750.027 411.45 741.354 406.721 735.449 395.905C730.339 386.542 726.961 371.257 720.328 360.269C716.434 353.836 711.536 348.693 705.233 345.848C700.252 343.675 694.785 342.855 689.386 343.471C681.363 344.223 672.848 347.565 664.423 349.998C658.068 351.831 651.774 353.361 645.951 350.603C641.3 348.391 637.124 342.515 632.577 336.736C627.018 329.682 621.208 322.557 615.004 318.615C609.903 315.364 604.49 313.972 598.75 315.121C594.056 316.16 589.789 318.602 586.516 322.123C580.569 328.175 576.367 337.59 573.35 343.89C569.356 352.207 565.785 360.714 562.397 369.308C554.676 388.864 547.949 408.879 539.59 428.141C538.223 431.287 535.474 439.284 531.731 446.314C530.462 448.827 528.907 451.185 527.097 453.342C526.452 453.994 525.746 454.582 524.987 455.096ZM445.968 520.544C466.267 520.353 486.566 519.887 506.866 519.36C547.396 518.295 587.925 516.506 628.455 514.993C668.951 513.481 709.434 512.339 749.89 511.189C751.007 511.158 752.108 510.906 753.127 510.447C754.146 509.988 755.064 509.332 755.828 508.516C756.593 507.7 757.187 506.741 757.578 505.694C757.969 504.646 758.149 503.532 758.107 502.415C758.064 501.298 757.801 500.2 757.332 499.186C756.863 498.171 756.197 497.26 755.374 496.504C754.55 495.748 753.585 495.163 752.534 494.782C751.483 494.402 750.366 494.234 749.25 494.287C712.861 496.025 676.459 498.17 640.006 499.82C615.755 500.927 591.492 501.821 567.215 502.501C526.798 503.625 486.383 504.002 445.972 503.633C443.729 503.633 441.578 504.524 439.993 506.11C438.407 507.696 437.516 509.846 437.516 512.089C437.516 514.331 438.407 516.482 439.993 518.067C441.578 519.653 443.729 520.544 445.972 520.544H445.968ZM451.758 561.077C461.432 561.177 471.115 560.731 480.841 560.278C487.214 559.985 493.593 559.612 499.982 559.423C510.539 559.123 521.078 559.223 531.556 559.337C533.784 559.261 535.892 558.308 537.421 556.686C538.95 555.064 539.776 552.904 539.72 550.675C539.665 548.447 538.731 546.33 537.122 544.787C535.514 543.244 533.36 542.398 531.132 542.434C523.187 542.944 515.255 543.714 507.253 544.275C502.005 544.639 496.74 544.984 491.477 545.14C478.481 545.488 465.476 545.167 452.513 544.18C451.4 544.125 450.288 544.291 449.239 544.667C448.191 545.043 447.227 545.622 446.403 546.372C445.579 547.122 444.912 548.027 444.439 549.036C443.966 550.044 443.697 551.136 443.648 552.249C443.598 553.362 443.769 554.473 444.15 555.52C444.531 556.567 445.116 557.527 445.87 558.348C446.623 559.168 447.532 559.831 448.543 560.299C449.553 560.766 450.647 561.03 451.76 561.074L451.758 561.077Z" fill="white"/>
<path fill-rule="evenodd" clip-rule="evenodd" d="M533.871 212.981C535.56 212.457 537.042 211.414 538.105 210C539.168 208.586 539.759 206.873 539.793 205.105C551.724 187.6 558.884 167.286 560.565 146.168C562.647 120.301 556.415 93.898 540.87 72.0078C528.239 54.1637 506.574 41.4537 486.533 41.7753C473.72 41.975 461.393 47.1871 451.978 59.5066C445.567 62.1404 439.81 66.1448 435.11 71.239C425.289 81.4576 417.706 95.8261 413.194 105.44C400.52 132.379 395.315 168.587 405.041 197.701C411.831 218.034 425.66 235.066 448.986 243.677C453.2 245.241 457.571 246.34 462.024 246.954C466.468 247.577 470.966 247.722 475.441 247.386C486.475 246.415 497.128 242.874 506.548 237.046C515.63 231.48 523.815 224.569 530.824 216.548C531.865 215.381 532.881 214.192 533.871 212.981ZM521.124 205.52C519.123 202.885 517.151 200.227 515.21 197.548C508.095 187.728 501.309 177.707 494.141 167.869C491.906 164.628 489.474 161.527 486.861 158.583C484.821 156.43 482.608 154.442 479.946 153.79C478.121 153.358 476.435 154.577 474.753 155.701C471.948 157.733 469.319 159.997 466.894 162.47C459.589 169.459 452.362 177.038 445.471 184.913C438.936 192.403 432.711 200.159 426.814 208.161C433.368 218.125 442.964 225.705 454.173 229.775C457.378 230.986 460.707 231.842 464.098 232.325C467.496 232.813 470.936 232.935 474.36 232.688C483.119 231.923 491.577 229.113 499.052 224.484C506.868 219.711 513.911 213.776 519.94 206.882C520.341 206.436 520.738 205.978 521.124 205.52ZM531.144 191.471C539.501 177.317 544.469 161.421 545.659 145.027C547.284 122.688 541.743 99.9159 528.126 81.1551C519.991 69.9849 507.342 61.2849 494.53 58.8406C486.36 57.276 478.147 58.5411 471.3 63.7512C471.475 64.4262 471.562 65.1209 471.559 65.8181C471.56 66.3608 471.508 66.9022 471.403 67.4347L474.879 79.7971C476.841 88.4781 478.407 97.1491 480.126 105.768C481.277 111.559 482.523 117.311 483.645 123.111C484.786 128.981 485.894 134.86 486.87 140.808C489.947 142.185 492.777 144.057 495.248 146.35C499.432 150.111 503.029 154.978 506.037 158.86C512.496 167.082 518.659 175.468 525.023 183.707C527.04 186.31 529.081 188.899 531.148 191.471H531.144ZM457.397 77.0832C456.297 77.2938 455.164 77.2788 454.069 77.0393C451.502 78.6841 449.143 80.6319 447.041 82.8406C438.413 91.6164 431.842 104.118 427.831 112.417C418.389 131.947 413.237 157.123 416.548 179.782C417.099 183.592 417.921 187.357 419.007 191.05C423.769 185.347 428.687 179.778 433.757 174.347C441.2 166.359 448.934 158.665 456.77 151.592C460.22 148.428 464.966 144.054 470.05 141.507C469.252 132.033 468.353 122.678 466.721 113.411C464.958 103.382 462.364 93.5165 459.745 83.5405C459.079 81.3481 458.296 79.1927 457.401 77.0832H457.397Z" fill="#737CE3"/>
<path fill-rule="evenodd" clip-rule="evenodd" d="M1465.04 1139.65C1477.53 1114.1 1532.07 1192.07 1511.22 1211.45C1482.47 1238.19 1318.85 1303.97 1292.48 1300.05C1266.12 1296.13 1324.29 1214.62 1353.05 1187.89C1381.81 1161.15 1430.22 1210.93 1465.04 1139.65Z" fill="#1A2283"/>
<mask id="mask1_12_472" style="mask-type:luminance" maskUnits="userSpaceOnUse" x="1285" y="1134" width="231" height="167">
<path d="M1465.04 1139.65C1477.53 1114.1 1532.07 1192.07 1511.22 1211.45C1482.47 1238.19 1318.85 1303.97 1292.48 1300.05C1266.12 1296.13 1324.29 1214.62 1353.05 1187.89C1381.81 1161.15 1430.22 1210.93 1465.04 1139.65Z" fill="white"/>
</mask>
<g mask="url(#mask1_12_472)">
<path fill-rule="evenodd" clip-rule="evenodd" d="M1532.53 1145.65C1523.66 1151.95 1506.33 1186.11 1486.36 1198.1C1452.76 1218.29 1370.08 1255.8 1330.93 1266.78C1305.42 1273.93 1263.82 1260.56 1251.48 1263.98C1243.81 1266.1 1249 1286.16 1256.9 1287.26C1271.05 1289.22 1311.02 1284.35 1336.37 1275.76C1374.86 1262.71 1453.95 1228.21 1487.82 1208.97C1508.42 1197.28 1532.14 1170.86 1539.6 1160.31C1542.72 1155.88 1536.95 1142.51 1532.53 1145.65Z" fill="white"/>
</g>
<path fill-rule="evenodd" clip-rule="evenodd" d="M972.177 1019.69C996.779 1005.42 998.654 1100.56 970.548 1105.04C931.775 1111.23 759.243 1074.75 739.528 1056.82C719.812 1038.88 813.521 1003.58 852.295 997.385C891.069 991.195 903.556 1059.5 972.177 1019.69Z" fill="#1A2283"/>
<mask id="mask2_12_472" style="mask-type:luminance" maskUnits="userSpaceOnUse" x="736" y="996" width="256" height="110">
<path d="M972.177 1019.69C996.779 1005.42 998.654 1100.56 970.548 1105.04C931.775 1111.23 759.243 1074.75 739.528 1056.82C719.812 1038.88 813.521 1003.58 852.295 997.385C891.069 991.195 903.556 1059.5 972.177 1019.69Z" fill="white"/>
</mask>
<g mask="url(#mask2_12_472)">
<path fill-rule="evenodd" clip-rule="evenodd" d="M1024.89 1062.26C1014.01 1062.55 980.599 1081.27 957.329 1080.11C918.181 1078.17 828.622 1063.28 789.989 1050.59C764.815 1042.33 737.709 1008.06 725.561 1004.02C718.005 1001.51 711.149 1021.07 717.096 1026.38C727.753 1035.88 763.663 1054.1 789.508 1061.08C828.742 1071.68 913.647 1087.07 952.493 1089.95C976.116 1091.71 1010.53 1082.98 1022.6 1078.37C1027.66 1076.43 1030.31 1062.11 1024.89 1062.26Z" fill="white"/>
</g>
<path fill-rule="evenodd" clip-rule="evenodd" d="M1237.36 728.195C1126.92 781.066 1024.33 713.502 982.488 787.657C941.358 860.547 1087.01 1016.95 966.372 1040.05C908.724 1051.09 811.092 1001.54 800.439 941.065C789.786 880.594 829.604 731.631 902.417 677.232C975.229 622.832 1141.03 598.125 1237.35 614.688C1338.1 632.005 1343.74 677.273 1237.36 728.195Z" fill="#96CE1F"/>
<mask id="mask3_12_472" style="mask-type:luminance" maskUnits="userSpaceOnUse" x="798" y="609" width="518" height="433">
<path d="M1237.36 728.195C1126.92 781.066 1024.33 713.502 982.488 787.657C941.358 860.547 1087.01 1016.95 966.372 1040.05C908.724 1051.09 811.092 1001.54 800.439 941.065C789.786 880.594 829.604 731.631 902.417 677.232C975.229 622.832 1141.03 598.125 1237.35 614.688C1338.1 632.005 1343.74 677.273 1237.36 728.195Z" fill="white"/>
</mask>
<g mask="url(#mask3_12_472)">
<path fill-rule="evenodd" clip-rule="evenodd" d="M1116.84 584.832C1118.39 585.706 1119.12 587.581 1119.71 589.492C1120.62 592.633 1121.13 595.879 1121.21 599.149C1121.66 616.767 1116.45 634.064 1106.35 648.506C1099.85 657.692 1090.94 663.35 1080.95 666.852C1064.93 672.472 1046.4 672.886 1030.27 673.561C1016.15 673.93 1002.1 675.632 988.306 678.644C974.464 681.809 961.081 686.667 948.926 694.258C932.603 704.122 922.03 717.623 914.197 732.912C896.569 767.295 893.728 811.494 874.09 845.034C870.019 852.007 865.551 858.742 860.71 865.204C855.941 871.552 850.621 877.466 844.811 882.878C829.18 897.342 812.131 908.581 797.798 923.278C791.171 929.998 785.364 937.48 780.498 945.566C779.405 947.525 779.135 949.837 779.747 951.994C780.36 954.151 781.804 955.977 783.762 957.069C785.72 958.162 788.032 958.432 790.189 957.819C792.346 957.207 794.172 955.763 795.264 953.805C800.431 944.126 807.004 935.266 814.768 927.515C826.855 915.091 840.635 904.449 853.21 891.48C859.172 885.282 864.587 878.58 869.395 871.449C874.125 864.439 878.464 857.172 882.39 849.682C900.882 815.099 901.643 770.213 918.57 735.086C925.66 720.372 935.766 707.507 951.19 697.962C963.006 691.042 975.923 686.202 989.377 683.654C1002.85 680.958 1016.75 680.126 1030.38 680.135C1047.3 680.256 1066.65 680.49 1083.73 675.562C1095.92 672.034 1106.92 665.853 1115.4 655.366C1121.7 647.452 1126.7 638.588 1130.22 629.106C1133.83 619.553 1135.91 609.49 1136.38 599.288C1136.66 593.583 1135.98 587.873 1134.37 582.394C1132.91 577.518 1129.84 573.285 1125.65 570.395C1124.7 569.817 1123.65 569.43 1122.55 569.259C1121.45 569.087 1120.33 569.133 1119.25 569.394C1118.17 569.656 1117.16 570.127 1116.26 570.781C1115.36 571.436 1114.6 572.26 1114.02 573.208C1113.44 574.156 1113.06 575.209 1112.89 576.306C1112.71 577.403 1112.76 578.524 1113.02 579.603C1113.28 580.682 1113.75 581.7 1114.41 582.597C1115.06 583.494 1115.89 584.254 1116.84 584.832ZM1042.87 789.237C1036.61 785.051 1029.18 782.995 1021.66 783.375C1011.99 783.859 1002.16 787.733 993.986 792.946C980.388 801.649 968.436 812.686 958.678 825.548C948.606 838.845 941.075 853.836 939.398 869.069C938.015 879.928 939.277 890.778 941.801 901.464C945.52 917.129 952.151 932.458 959.127 946.377C962.154 952.619 967.634 960.426 970.721 968.371C972.554 973.091 973.505 977.829 972.035 982.203C967.453 995.569 955.6 1003.98 943.15 1012.07C929.361 1021.03 914.949 1029.62 906.018 1041.91C900.678 1049.24 897.502 1057.92 896.854 1066.96C896.81 1068.07 896.984 1069.18 897.368 1070.22C897.752 1071.27 898.337 1072.22 899.091 1073.04C899.844 1073.85 900.751 1074.51 901.759 1074.98C902.768 1075.45 903.858 1075.71 904.968 1075.75C907.209 1075.84 909.394 1075.04 911.042 1073.51C912.69 1071.99 913.666 1069.88 913.755 1067.64C913.721 1057.15 918.049 1049.15 924.398 1042.28C942.415 1022.76 972.882 1010.34 979.651 984.516C980.834 979.672 980.533 974.584 978.787 969.914C975.606 960.516 968.136 951.127 964.082 943.804C956.923 930.424 949.626 915.758 946.021 900.469C943.552 890.438 943.062 880.022 944.577 869.803C946.998 855.815 954.683 842.251 964.929 830.683C974.876 819.596 986.777 810.432 1000.04 803.649C1005.68 800.716 1011.84 798.915 1018.17 798.349C1023.47 797.881 1028.74 799.507 1032.86 802.879C1033.75 803.536 1034.77 804.011 1035.85 804.276C1036.92 804.54 1038.04 804.59 1039.14 804.422C1040.24 804.254 1041.29 803.871 1042.24 803.296C1043.19 802.72 1044.02 801.963 1044.68 801.068C1045.34 800.173 1045.81 799.157 1046.08 798.078C1046.34 797 1046.39 795.88 1046.22 794.782C1046.05 793.684 1045.67 792.63 1045.1 791.68C1044.52 790.73 1043.76 789.903 1042.87 789.245V789.237Z" fill="white"/>
<path fill-rule="evenodd" clip-rule="evenodd" d="M1267.17 652.033C1154.02 769.94 1025.4 701.667 976.366 776.131C954.545 809.281 987.787 886.11 1027.4 883.688C1090.48 879.841 1314.89 791.632 1354.85 753.022C1386.91 722.044 1291.25 626.936 1267.17 652.033Z" fill="black" fill-opacity="0.2"/>
</g>
<path fill-rule="evenodd" clip-rule="evenodd" d="M1365.24 666.885C1293.53 855.524 1390.02 942.479 1406.42 964.867C1465.18 1045.06 1563.11 1079.21 1502 1150.08C1463.66 1194.52 1359.94 1210.29 1309.8 1169.88C1259.37 1129.25 1210.76 997.735 1199.45 906.3C1188.14 814.864 1215.87 715.448 1241.95 621.261C1261.91 549.181 1407.15 556.649 1365.24 666.885Z" fill="#96CE1F"/>
<mask id="mask4_12_472" style="mask-type:luminance" maskUnits="userSpaceOnUse" x="1196" y="574" width="326" height="620">
<path d="M1365.24 666.885C1293.53 855.524 1390.02 942.479 1406.42 964.867C1465.18 1045.06 1563.11 1079.21 1502 1150.08C1463.66 1194.52 1359.94 1210.29 1309.8 1169.88C1259.37 1129.25 1210.76 997.735 1199.45 906.3C1188.14 814.864 1215.87 715.448 1241.95 621.261C1261.91 549.181 1407.15 556.649 1365.24 666.885Z" fill="white"/>
</mask>
<g mask="url(#mask4_12_472)">
<path fill-rule="evenodd" clip-rule="evenodd" d="M1401.49 578.994C1391.22 582.253 1381.15 589.308 1371.93 598.118C1359.6 609.884 1348.64 624.556 1340.25 635.051C1311.4 670.835 1281.33 719.803 1268.29 770.188C1259.41 804.484 1258.29 839.456 1271.25 871.608C1273.93 878.343 1278.14 885.519 1283.97 889.435C1286.14 890.95 1288.62 891.957 1291.23 892.381C1293.84 892.805 1296.51 892.634 1299.05 891.882C1304.88 890.309 1314.7 883.668 1322.93 881.766C1327.8 880.642 1332.01 881.49 1333.65 887.577C1345.19 931.591 1334.31 981.328 1341.94 1026.55C1345.29 1046.47 1352.15 1065.53 1365.75 1082.98C1374.01 1093.57 1384.58 1100.11 1396.31 1104.6C1421.13 1114.11 1451.63 1113.55 1474.91 1125.22C1485.73 1130.65 1493.66 1138.55 1500.17 1147.63C1510.68 1162.28 1517.49 1179.96 1525.69 1196.31C1526.21 1197.3 1526.91 1198.17 1527.76 1198.88C1528.62 1199.59 1529.6 1200.12 1530.66 1200.45C1531.72 1200.78 1532.84 1200.9 1533.95 1200.8C1535.05 1200.69 1536.13 1200.38 1537.11 1199.86C1538.09 1199.34 1538.96 1198.64 1539.67 1197.78C1540.38 1196.93 1540.92 1195.94 1541.25 1194.88C1541.57 1193.82 1541.69 1192.71 1541.59 1191.6C1541.49 1190.5 1541.17 1189.42 1540.65 1188.44C1531.44 1171.73 1523.47 1153.68 1511.93 1138.84C1503.73 1128.28 1493.85 1119.23 1480.66 1113.21C1456.51 1102.18 1425.47 1103.71 1399.84 1094.89C1389.63 1091.37 1380.31 1086.1 1372.92 1077.21C1359.74 1061.33 1352.83 1043.72 1349.22 1025.23C1340.43 980.197 1350.4 930.181 1337.93 886.409C1336 879.432 1331.83 877.029 1326.77 876.952C1317.76 876.822 1304.95 885.786 1297.92 887.688C1295.98 888.251 1293.95 888.372 1291.97 888.041C1289.98 887.71 1288.1 886.937 1286.45 885.778C1281.35 882.294 1277.86 875.853 1275.58 869.913C1263.79 838.626 1265.43 804.848 1275.02 772.047C1289.25 723.433 1320.77 677.103 1350.22 643.419C1358.75 633.754 1369.88 620.154 1382.24 609.46C1389.87 602.855 1397.96 597.409 1406.2 595.23C1408.33 594.587 1410.13 593.128 1411.19 591.17C1412.25 589.213 1412.5 586.914 1411.88 584.775C1411.26 582.636 1409.81 580.829 1407.87 579.746C1405.92 578.664 1403.62 578.394 1401.48 578.994H1401.49ZM1221.4 1010.56C1221 1002.95 1223.35 994.063 1227.35 985.944C1231.54 977.42 1237.28 969.647 1243.5 964.927C1246.83 962.259 1250.81 960.514 1255.03 959.869C1256.97 959.559 1258.95 959.668 1260.85 960.19C1262.74 960.712 1264.5 961.635 1266 962.896C1269.25 965.923 1271.69 969.711 1273.1 973.918C1275.74 980.973 1276.83 988.97 1277.92 995.486C1279.46 1005.29 1280.45 1015.31 1281.33 1025.36C1282.21 1035.49 1283.09 1045.62 1284.6 1055.6C1285.8 1064.31 1287.77 1072.89 1290.48 1081.26C1293.97 1092.14 1300.29 1101.91 1308.78 1109.56C1326.77 1126.14 1352.34 1132.68 1370.67 1151.99C1375.84 1157.66 1379.62 1164.44 1381.73 1171.81C1385.29 1183.27 1385.66 1195.87 1385.47 1207.75C1385.54 1209.97 1386.5 1212.08 1388.12 1213.61C1389.74 1215.14 1391.9 1215.96 1394.13 1215.91C1396.35 1215.85 1398.47 1214.92 1400.01 1213.32C1401.56 1211.71 1402.41 1209.56 1402.38 1207.33C1401.49 1193.92 1399.72 1179.81 1394.68 1167.22C1391.16 1158.41 1386.22 1150.27 1378.91 1143.62C1358.94 1125.23 1332.43 1120.36 1313.15 1104.54C1305.06 1097.96 1298.89 1089.33 1295.29 1079.55C1291.47 1068.85 1288.93 1057.74 1287.72 1046.45C1285.71 1029.23 1285.78 1011.65 1283.73 994.697C1282.99 987.745 1282.24 979.256 1279.96 971.613C1278.47 966.075 1275.65 960.986 1271.74 956.795C1266.85 951.832 1260.63 950.086 1254.31 950.284C1248.24 950.628 1242.35 952.544 1237.24 955.844C1229.22 960.837 1221.36 969.478 1215.29 979.238C1209.02 989.293 1205.02 1000.6 1204.49 1010.56C1204.49 1012.8 1205.38 1014.95 1206.97 1016.54C1208.55 1018.13 1210.7 1019.02 1212.95 1019.02C1215.19 1019.02 1217.34 1018.13 1218.93 1016.54C1220.51 1014.95 1221.4 1012.8 1221.4 1010.56L1221.4 1010.56Z" fill="white"/>
<path fill-rule="evenodd" clip-rule="evenodd" d="M1418.22 927.051C1412.38 930.761 1408.01 936.889 1405.76 944.869C1401.96 958.287 1402.89 976.174 1404.3 985.546C1404.91 990.286 1405.78 994.989 1406.89 999.638C1407.98 1004.33 1409.47 1008.92 1411.35 1013.36C1415.66 1023.91 1421.52 1031.15 1428.25 1036.42C1433.36 1040.34 1439.11 1043.35 1445.24 1045.31C1475.68 1055.51 1519.04 1043.52 1546.17 1064.64C1548.01 1065.9 1550.28 1066.37 1552.47 1065.96C1554.66 1065.55 1556.6 1064.3 1557.87 1062.47C1559.14 1060.64 1559.63 1058.38 1559.25 1056.19C1558.86 1053.99 1557.63 1052.04 1555.81 1050.75C1545.42 1044.52 1533.87 1041.78 1521.58 1041.02C1496.61 1039.48 1468.9 1046.28 1446.64 1040.55C1440.93 1039.18 1435.56 1036.62 1430.9 1033.05C1424.8 1028.24 1419.98 1021.16 1416.5 1011.4C1415.12 1007.16 1414.13 1002.8 1413.56 998.376C1412.98 993.912 1412.68 989.417 1412.64 984.915C1412.62 977.653 1413.49 964.798 1417.1 954.18C1419 948.622 1421.71 943.849 1426.01 942.069C1428.01 941.035 1429.51 939.252 1430.18 937.113C1430.86 934.973 1430.66 932.653 1429.62 930.661C1428.59 928.67 1426.81 927.171 1424.67 926.494C1422.53 925.817 1420.21 926.017 1418.22 927.051H1418.22Z" fill="white"/>
</g>
<path fill-rule="evenodd" clip-rule="evenodd" d="M1332.17 396.188C1285.48 385.22 1241.12 506.909 1194.28 508.818C1147.43 510.728 1072.02 429.515 1051.08 407.633C1042.23 398.378 1028.52 389.455 1022.1 387.49C1005.59 382.423 978.177 380.845 976.279 389.736C975.023 395.627 1003.5 391.201 1001.97 399.988C998.065 422.311 1009.37 427.997 1030.79 429.402C1053.02 476.595 1149.16 583.921 1203.38 590.75C1257.59 597.58 1342.49 502.968 1356.04 470.388C1370.78 434.983 1357.47 402.124 1332.17 396.188Z" fill="#D6AEAE"/>
<mask id="mask5_12_472" style="mask-type:luminance" maskUnits="userSpaceOnUse" x="976" y="383" width="387" height="209">
<path d="M1332.17 396.188C1285.48 385.22 1241.12 506.909 1194.28 508.818C1147.43 510.728 1072.02 429.515 1051.08 407.633C1042.23 398.378 1028.52 389.455 1022.1 387.49C1005.59 382.423 978.177 380.845 976.279 389.736C975.023 395.627 1003.5 391.201 1001.97 399.988C998.065 422.311 1009.37 427.997 1030.79 429.402C1053.02 476.595 1149.16 583.921 1203.38 590.75C1257.59 597.58 1342.49 502.968 1356.04 470.388C1370.78 434.983 1357.47 402.124 1332.17 396.188Z" fill="white"/>
</mask>
<g mask="url(#mask5_12_472)">
<path fill-rule="evenodd" clip-rule="evenodd" d="M1338.2 516.207C1322.12 518.912 1309.95 499.479 1295.2 492.295C1263.76 476.981 1255.98 523.256 1221.42 469.743C1210.98 453.561 1229.96 392.35 1252.2 374.803C1274.44 357.255 1331.64 347.544 1354.88 364.426C1378.11 381.309 1394.4 450.786 1391.61 476.084C1389.19 498.222 1354.27 513.511 1338.2 516.207Z" fill="#1A2283"/>
<path fill-rule="evenodd" clip-rule="evenodd" d="M1316.45 444.916C1304.36 454.518 1295.26 514.212 1267.04 532.085C1232.54 553.924 1128 556.878 1109.48 575.982C1090.97 595.085 1127.72 646.077 1155.92 646.724C1192.82 647.561 1300.24 609.707 1330.85 580.99C1356.84 556.613 1342 497.116 1339.59 474.429C1338.28 462.003 1326.24 437.131 1316.45 444.916Z" fill="black" fill-opacity="0.2"/>
</g>
<path fill-rule="evenodd" clip-rule="evenodd" d="M1386.15 621.914C1393.02 661.305 1235.3 684.385 1207.17 647.003C1163.38 588.813 1292.38 558.216 1299.74 422.187C1302.37 373.59 1434.85 377.468 1402.53 432.585C1384.38 463.553 1366.41 508.844 1386.15 621.914Z" fill="#1A2283"/>
<mask id="mask6_12_472" style="mask-type:luminance" maskUnits="userSpaceOnUse" x="1198" y="388" width="210" height="278">
<path d="M1386.15 621.914C1393.02 661.305 1235.3 684.385 1207.17 647.003C1163.38 588.813 1292.38 558.216 1299.74 422.187C1302.37 373.59 1434.85 377.468 1402.53 432.585C1384.38 463.553 1366.41 508.844 1386.15 621.914Z" fill="white"/>
</mask>
<g mask="url(#mask6_12_472)">
<path fill-rule="evenodd" clip-rule="evenodd" d="M1367.44 470.358C1350.87 463.768 1381.98 545.403 1358.58 568.42C1330.15 596.397 1200.71 614.674 1196.85 638.226C1193 661.778 1291.91 714.774 1335.43 709.729C1378.96 704.683 1452.67 647.811 1458.01 607.914C1463.34 568.017 1384.01 476.943 1367.44 470.358Z" fill="black" fill-opacity="0.2"/>
</g>
<path fill-rule="evenodd" clip-rule="evenodd" d="M1357.59 780.138C1382.5 801.453 1416.98 802.031 1434.61 781.429L1434.62 781.417C1452.25 760.819 1446.35 726.84 1421.44 705.525L952.896 304.564C943.363 296.407 932.353 290.154 920.464 286.146C899.421 279.051 864.149 267.153 838.005 258.337C835.445 257.473 832.682 257.413 830.087 258.163C827.491 258.913 825.186 260.438 823.481 262.534C821.777 264.63 820.752 267.197 820.546 269.891C820.34 272.584 820.962 275.277 822.329 277.608C836.459 301.718 855.51 334.232 866.283 352.611C871.798 362.025 878.845 370.451 887.135 377.544L1357.59 780.138Z" fill="#737CE3"/>
<mask id="mask7_12_472" style="mask-type:luminance" maskUnits="userSpaceOnUse" x="820" y="257" width="625" height="540">
<path d="M1357.6 780.138C1382.5 801.453 1416.98 802.031 1434.61 781.429L1434.62 781.417C1452.25 760.819 1446.35 726.84 1421.44 705.525L952.896 304.564C943.363 296.407 932.354 290.154 920.465 286.146C899.421 279.051 864.149 267.153 838.006 258.337C835.445 257.473 832.683 257.413 830.087 258.163C827.491 258.913 825.187 260.438 823.482 262.534C821.777 264.63 820.753 267.197 820.547 269.891C820.341 272.584 820.963 275.277 822.329 277.608C836.46 301.718 855.51 334.232 866.283 352.611C871.798 362.025 878.846 370.451 887.136 377.544L1357.6 780.138Z" fill="white"/>
</mask>
<g mask="url(#mask7_12_472)">
<path fill-rule="evenodd" clip-rule="evenodd" d="M827.356 302.346C919.118 389.57 970.205 433.661 1077.79 496.341C1238.94 590.222 1302.43 720.778 1361.39 751.712C1390.59 767.031 1479 776.36 1431.54 681.917C1416.04 651.063 1577.07 810.439 1548.38 840.82C1519.69 871.2 1346.53 905.981 1259.39 864.198C1138.07 806.031 892.517 585.485 820.517 491.846C781.984 441.736 801.48 277.75 827.356 302.346Z" fill="black" fill-opacity="0.2"/>
</g>
<path fill-rule="evenodd" clip-rule="evenodd" d="M1372.63 749.591C1375.87 752.364 1380.08 753.737 1384.33 753.407C1388.59 753.078 1392.53 751.072 1395.31 747.832L1405.75 735.633C1405.76 735.625 1405.75 735.613 1405.76 735.605C1405.75 735.593 1405.74 735.582 1405.73 735.572L1284.09 631.478C1283.7 631.141 1283.24 630.884 1282.75 630.723C1282.26 630.562 1281.74 630.5 1281.22 630.54C1280.7 630.58 1280.2 630.721 1279.73 630.956C1279.27 631.191 1278.86 631.515 1278.52 631.91L1270.63 641.136C1267.85 644.378 1266.48 648.589 1266.81 652.842C1267.15 657.095 1269.15 661.043 1272.39 663.817L1372.63 749.591Z" fill="white"/>
<path fill-rule="evenodd" clip-rule="evenodd" d="M1372.64 404.03C1333.99 432.421 1397.75 545.162 1368.79 582.033C1339.82 618.903 1226.61 613.116 1198.86 625.248C1194.45 627.17 1180.65 601.853 1174.47 599.228C1165.43 595.378 1165.68 607.815 1171.64 619.577C1174.36 624.952 1148.04 596.487 1146.58 602.053C1143.1 615.397 1162.25 649.398 1202.25 654.807C1280.9 665.432 1396.62 665.101 1437.01 628.301C1477.41 591.501 1460.57 465.504 1444.58 434.045C1427.22 399.85 1393.59 388.636 1372.64 404.03Z" fill="#D6AEAE"/>
<mask id="mask8_12_472" style="mask-type:luminance" maskUnits="userSpaceOnUse" x="1146" y="397" width="317" height="264">
<path d="M1372.64 404.03C1333.99 432.421 1397.75 545.162 1368.79 582.033C1339.82 618.903 1226.61 613.116 1198.86 625.248C1194.45 627.17 1180.65 601.853 1174.47 599.228C1165.43 595.378 1165.68 607.815 1171.64 619.577C1174.36 624.952 1148.04 596.487 1146.58 602.053C1143.1 615.397 1162.25 649.398 1202.25 654.807C1280.9 665.432 1396.62 665.101 1437.01 628.301C1477.41 591.501 1460.57 465.504 1444.58 434.045C1427.22 399.85 1393.59 388.636 1372.64 404.03Z" fill="white"/>
</mask>
<g mask="url(#mask8_12_472)">
<path fill-rule="evenodd" clip-rule="evenodd" d="M1467.85 477.363C1459.47 491.342 1436.78 487.988 1421.75 494.537C1389.69 508.506 1419.83 544.469 1356.69 536.012C1337.6 533.447 1303.37 479.266 1304.47 450.961C1305.57 422.655 1335.31 372.84 1363.24 366.132C1391.16 359.424 1454.58 392.141 1472.01 410.684C1487.27 426.905 1476.23 463.392 1467.85 477.363Z" fill="#1A2283"/>
</g>
<path fill-rule="evenodd" clip-rule="evenodd" d="M1406.33 332.857C1405.01 346.385 1395.64 380.506 1374.8 381.883C1353.39 383.297 1347.49 348.192 1348.82 334.662C1350.14 321.132 1373.16 301.001 1382.75 300.696C1392.34 300.392 1407.63 319.625 1406.33 332.857Z" fill="#D6AEAE"/>
<path fill-rule="evenodd" clip-rule="evenodd" d="M1352.2 361.112C1353.58 359.971 1359.61 368.02 1363.12 368.21C1366.63 368.4 1369.8 361.89 1373.26 362.254C1376.72 362.617 1379.81 371.858 1383.84 370.342C1387.87 368.825 1395.44 359.639 1397.46 353.167C1399.48 346.696 1398.11 335.394 1395.95 331.554C1394.05 328.2 1388.08 328.779 1384.46 330.127C1372.64 334.562 1356.36 333.283 1349.94 328.735C1343.52 324.187 1337.31 318.309 1345.95 302.816C1348.93 297.482 1366 283.909 1369.75 294.474C1377.29 315.75 1378.91 283.468 1403.74 307.762C1409.72 313.597 1408.11 325.036 1407.62 333.499C1407.14 341.962 1405.19 351.084 1400.81 358.545C1395.95 366.854 1394.37 372.824 1378.44 383.366C1371.65 387.853 1341.61 391.821 1354.84 375.041C1357.12 372.17 1350.82 362.245 1352.2 361.112Z" fill="black"/>
</g>
<defs>
<filter id="filter0_d_12_472" x="0" y="0" width="1689.48" height="1341.07" filterUnits="userSpaceOnUse" color-interpolation-filters="sRGB">
<feFlood flood-opacity="0" result="BackgroundImageFix"/>
<feColorMatrix in="SourceAlpha" type="matrix" values="0 0 0 0 0 0 0 0 0 0 0 0 0 0 0 0 0 0 127 0" result="hardAlpha"/>
<feOffset dy="4"/>
<feGaussianBlur stdDeviation="2"/>
<feComposite in2="hardAlpha" operator="out"/>
<feColorMatrix type="matrix" values="0 0 0 0 0 0 0 0 0 0 0 0 0 0 0 0 0 0 0.25 0"/>
<feBlend mode="normal" in2="BackgroundImageFix" result="effect1_dropShadow_12_472"/>
<feBlend mode="normal" in="SourceGraphic" in2="effect1_dropShadow_12_472" result="shape"/>
</filter>
</defs>
</svg>
